<svg width="21" height="68" xmlns="http://www.w3.org/2000/svg" xmlns:xlink="http://www.w3.org/1999/xlink"><defs><path id="a" d="M0 0h21v68H0z"/><path d="M0 68h13l-1.447-2.894A2 2 0 0 0 9.763 64H3.237a2 2 0 0 0-1.789 1.106L0 68z" id="d"/><filter x="-92.3%" y="-300%" width="284.6%" height="700%" filterUnits="objectBoundingBox" id="c"><feOffset in="SourceAlpha" result="shadowOffsetOuter1"/><feGaussianBlur stdDeviation="4" in="shadowOffsetOuter1" result="shadowBlurOuter1"/><feComposite in="shadowBlurOuter1" in2="SourceAlpha" operator="out" result="shadowBlurOuter1"/><feColorMatrix values="0 0 0 0 0 0 0 0 0 0 0 0 0 0 0 0 0 0 0.05 0" in="shadowBlurOuter1"/></filter><path id="f" d="M6 4h1v60H6z"/><filter x="-1900%" y="-31.7%" width="3900%" height="163.3%" filterUnits="objectBoundingBox" id="e"><feMorphology radius="1" operator="dilate" in="SourceAlpha" result="shadowSpreadOuter1"/><feOffset in="shadowSpreadOuter1" result="shadowOffsetOuter1"/><feGaussianBlur stdDeviation="4" in="shadowOffsetOuter1" result="shadowBlurOuter1"/><feColorMatrix values="0 0 0 0 0.192156863 0 0 0 0 0.780392157 0 0 0 0 0.764705882 0 0 0 1 0" in="shadowBlurOuter1" result="shadowMatrixOuter1"/><feOffset in="SourceAlpha" result="shadowOffsetOuter2"/><feGaussianBlur stdDeviation="2" in="shadowOffsetOuter2" result="shadowBlurOuter2"/><feColorMatrix values="0 0 0 0 0 0 0 0 0 1 0 0 0 0 0.973333333 0 0 0 1 0" in="shadowBlurOuter2" result="shadowMatrixOuter2"/><feMerge><feMergeNode in="shadowMatrixOuter1"/><feMergeNode in="shadowMatrixOuter2"/></feMerge></filter><path d="M0 0h13l-1.447 2.894A2 2 0 0 1 9.763 4H3.237a2 2 0 0 1-1.789-1.106L0 0z" id="h"/><filter x="-92.3%" y="-300%" width="284.6%" height="700%" filterUnits="objectBoundingBox" id="g"><feOffset in="SourceAlpha" result="shadowOffsetOuter1"/><feGaussianBlur stdDeviation="4" in="shadowOffsetOuter1" result="shadowBlurOuter1"/><feComposite in="shadowBlurOuter1" in2="SourceAlpha" operator="out" result="shadowBlurOuter1"/><feColorMatrix values="0 0 0 0 0 0 0 0 0 0 0 0 0 0 0 0 0 0 0.05 0" in="shadowBlurOuter1"/></filter></defs><g fill="none" fill-rule="evenodd"><mask id="b" fill="#fff"><use xlink:href="#a"/></mask><g mask="url(#b)"><g transform="translate(4)"><use fill="#000" filter="url(#c)" xlink:href="#d"/><use fill="#191E1F" xlink:href="#d"/><path stroke-opacity=".08" stroke="#102452" d="M.809 67.5h11.382l-1.085-2.17a1.5 1.5 0 0 0-1.342-.83H3.236a1.5 1.5 0 0 0-1.342.83L.81 67.5z"/></g><g transform="translate(4)"><use fill="#000" filter="url(#e)" xlink:href="#f"/><use fill="#FAFBFB" xlink:href="#f"/></g><g transform="translate(4)"><use fill="#000" filter="url(#g)" xlink:href="#h"/><use fill="#191E1F" xlink:href="#h"/><path stroke-opacity=".08" stroke="#102452" d="M.809.5l1.085 2.17a1.5 1.5 0 0 0 1.342.83h6.528a1.5 1.5 0 0 0 1.342-.83L12.19.5H.809z"/></g></g></g></svg>