<svg width="602" height="45" xmlns="http://www.w3.org/2000/svg" xmlns:xlink="http://www.w3.org/1999/xlink"><defs><path d="M0 6V4a4 4 0 0 1 4-4h6l6 6h33a4 4 0 0 1 4 4v31a4 4 0 0 1-4 4H4a4 4 0 0 1-4-4V6z" id="a"/><rect id="b" y="10" width="53" height="35" rx="4"/><path d="M0 6V4a4 4 0 0 1 4-4h19l6 6h20a4 4 0 0 1 4 4v31a4 4 0 0 1-4 4H4a4 4 0 0 1-4-4V6z" id="c"/><rect id="d" y="10" width="53" height="35" rx="4"/><path d="M0 6V4a4 4 0 0 1 4-4h14l6 6h25a4 4 0 0 1 4 4v31a4 4 0 0 1-4 4H4a4 4 0 0 1-4-4V6z" id="e"/><rect id="f" y="10" width="53" height="35" rx="4"/><path d="M0 6V4a4 4 0 0 1 4-4h23l6 6h16a4 4 0 0 1 4 4v31a4 4 0 0 1-4 4H4a4 4 0 0 1-4-4V6z" id="g"/><rect id="h" y="10" width="53" height="35" rx="4"/><path d="M0 6V4a4 4 0 0 1 4-4h13l6 6h26a4 4 0 0 1 4 4v31a4 4 0 0 1-4 4H4a4 4 0 0 1-4-4V6z" id="i"/><rect id="j" y="10" width="53" height="35" rx="4"/><path d="M0 6V4a4 4 0 0 1 4-4h11l6 6h28a4 4 0 0 1 4 4v31a4 4 0 0 1-4 4H4a4 4 0 0 1-4-4V6z" id="k"/><rect id="l" y="10" width="53" height="35" rx="4"/><path d="M0 6V4a4 4 0 0 1 4-4h10l6 6h29a4 4 0 0 1 4 4v31a4 4 0 0 1-4 4H4a4 4 0 0 1-4-4V6z" id="m"/><rect id="n" y="10" width="53" height="35" rx="4"/><path d="M0 6V4a4 4 0 0 1 4-4h13l6 6h26a4 4 0 0 1 4 4v31a4 4 0 0 1-4 4H4a4 4 0 0 1-4-4V6z" id="o"/><rect id="p" y="10" width="53" height="35" rx="4"/><path d="M0 6V4a4 4 0 0 1 4-4h14l6 6h25a4 4 0 0 1 4 4v31a4 4 0 0 1-4 4H4a4 4 0 0 1-4-4V6z" id="q"/><rect id="r" y="10" width="53" height="35" rx="4"/><path d="M0 6V4a4 4 0 0 1 4-4h13l6 6h26a4 4 0 0 1 4 4v31a4 4 0 0 1-4 4H4a4 4 0 0 1-4-4V6z" id="s"/><rect id="t" y="10" width="53" height="35" rx="4"/></defs><g fill="none" fill-rule="evenodd"><g><use fill-opacity=".2" fill="#31C7C3" xlink:href="#a"/><path stroke-opacity=".4" stroke="#31C7C3" d="M9.793.5H4A3.5 3.5 0 0 0 .5 4v37A3.5 3.5 0 0 0 4 44.5h45a3.5 3.5 0 0 0 3.5-3.5V10A3.5 3.5 0 0 0 49 6.5H15.793l-6-6z"/></g><g><use fill-opacity=".2" fill="#31C7C3" xlink:href="#b"/><rect stroke-opacity=".4" stroke="#31C7C3" x=".5" y="10.5" width="52" height="34" rx="4"/></g><path d="M7.312 7L7 6.184H5.422L5.11 7h-.996L5.77 2.8h.876L8.308 7h-.996zM6.21 4.092a2.574 2.574 0 0 1-.002-.008l.002.008zm-.002-.008c-.024.108-.084.252-.126.354l-.36.906h.972l-.36-.906a3.6 3.6 0 0 1-.124-.346l-.002-.008z" fill="#FFF"/><g transform="translate(61)"><use fill-opacity=".2" fill="#31C7C3" xlink:href="#c"/><path stroke-opacity=".4" stroke="#31C7C3" d="M22.793.5H4A3.5 3.5 0 0 0 .5 4v37A3.5 3.5 0 0 0 4 44.5h45a3.5 3.5 0 0 0 3.5-3.5V10A3.5 3.5 0 0 0 49 6.5H28.793l-6-6z"/></g><g transform="translate(61)"><use fill-opacity=".2" fill="#31C7C3" xlink:href="#d"/><rect stroke-opacity=".4" stroke="#31C7C3" x=".5" y="10.5" width="52" height="34" rx="4"/></g><path d="M68.312 7L68 6.184h-1.578L66.11 7h-.996l1.656-4.2h.876L69.308 7h-.996zM67.21 4.092a2.574 2.574 0 0 1-.002-.008l.002.008zm-.002-.008c-.024.108-.084.252-.126.354l-.36.906h.972l-.36-.906a3.6 3.6 0 0 1-.124-.346l-.002-.008zM72.734 7l-.312-.816h-1.578L70.532 7h-.996l1.656-4.2h.876L73.73 7h-.996zm-1.102-2.908a2.596 2.596 0 0 1-.002-.008l.002.008zm-.002-.008c-.024.108-.084.252-.126.354l-.36.906h.972l-.36-.906a3.6 3.6 0 0 1-.124-.346l-.002-.008zM77.156 7l-.312-.816h-1.578L74.954 7h-.996l1.656-4.2h.876L78.152 7h-.996zm-1.102-2.908a2.596 2.596 0 0 1-.002-.008l.002.008zm-.002-.008c-.024.108-.084.252-.126.354l-.36.906h.972l-.36-.906a3.6 3.6 0 0 1-.124-.346l-.002-.008zM81.578 7l-.312-.816h-1.578L79.376 7h-.996l1.656-4.2h.876L82.574 7h-.996zm-1.102-2.908a2.596 2.596 0 0 1-.002-.008l.002.008zm-.002-.008c-.024.108-.084.252-.126.354l-.36.906h.972l-.36-.906a3.6 3.6 0 0 1-.124-.346l-.002-.008z" fill="#FFF"/><g transform="translate(122)"><use fill-opacity=".2" fill="#31C7C3" xlink:href="#e"/><path stroke-opacity=".4" stroke="#31C7C3" d="M17.793.5H4A3.5 3.5 0 0 0 .5 4v37A3.5 3.5 0 0 0 4 44.5h45a3.5 3.5 0 0 0 3.5-3.5V10A3.5 3.5 0 0 0 49 6.5H23.793l-6-6z"/></g><g transform="translate(122)"><use fill-opacity=".2" fill="#31C7C3" xlink:href="#f"/><rect stroke-opacity=".4" stroke="#31C7C3" x=".5" y="10.5" width="52" height="34" rx="4"/></g><path d="M128.07 7.06c-1.32 0-1.77-1.122-1.77-2.16 0-.954.462-2.16 1.77-2.16.81 0 1.338.498 1.542 1.008l-.816.366c-.21-.318-.396-.498-.726-.498-.624 0-.822.708-.822 1.284 0 .594.246 1.284.822 1.284.306 0 .522-.222.714-.54l.834.312c-.3.648-.774 1.104-1.548 1.104zm5.052-.06l-.312-.816h-1.578L130.92 7h-.996l1.656-4.2h.876l1.662 4.2h-.996zm-1.102-2.908a2.596 2.596 0 0 1-.002-.008l.002.008zm-.002-.008c-.024.108-.084.252-.126.354l-.36.906h.972l-.36-.906a3.6 3.6 0 0 1-.124-.346l-.002-.008zM137.544 7l-.312-.816h-1.578l-.312.816h-.996l1.656-4.2h.876L138.54 7h-.996zm-1.102-2.908a2.596 2.596 0 0 1-.002-.008l.002.008zm-.002-.008c-.024.108-.084.252-.126.354l-.36.906h.972l-.36-.906a3.6 3.6 0 0 1-.124-.346l-.002-.008z" fill="#FFF"/><g transform="translate(183)"><use fill-opacity=".2" fill="#31C7C3" xlink:href="#g"/><path stroke-opacity=".4" stroke="#31C7C3" d="M26.793.5H4A3.5 3.5 0 0 0 .5 4v37A3.5 3.5 0 0 0 4 44.5h45a3.5 3.5 0 0 0 3.5-3.5V10A3.5 3.5 0 0 0 49 6.5H32.793l-6-6z"/></g><g transform="translate(183)"><use fill-opacity=".2" fill="#31C7C3" xlink:href="#h"/><rect stroke-opacity=".4" stroke="#31C7C3" x=".5" y="10.5" width="52" height="34" rx="4"/></g><path d="M189.07 7.06c-1.32 0-1.77-1.122-1.77-2.16 0-.954.462-2.16 1.77-2.16.81 0 1.338.498 1.542 1.008l-.816.366c-.21-.318-.396-.498-.726-.498-.624 0-.822.708-.822 1.284 0 .594.246 1.284.822 1.284.306 0 .522-.222.714-.54l.834.312c-.3.648-.774 1.104-1.548 1.104zm4.74-1.746a3.085 3.085 0 0 1-.018-.318V2.8h.912V7h-.798l-1.584-2.226a2.747 2.747 0 0 1-.173-.304c.011.088.011.226.011.304V7h-.9V2.8h.834l1.542 2.202c.04.058.13.21.17.302l.004.01zm-1.66-.844a3.53 3.53 0 0 1-.008-.014l.007.014zM198.46 7l-.312-.816h-1.578l-.312.816h-.996l1.656-4.2h.876l1.662 4.2h-.996zm-1.102-2.908a2.596 2.596 0 0 1-.002-.008l.002.008zm-.002-.008c-.024.108-.084.252-.126.354l-.36.906h.972l-.36-.906a3.6 3.6 0 0 1-.124-.346l-.002-.008zm5.73.702v.004-.004zm0 0c-.03.072-.036.084-.054.12l-1.02 2.166-1.032-2.154c-.018-.042-.024-.06-.048-.132V7h-.912V2.8h.93l.978 2.142c.042.096.072.18.102.264.03-.084.06-.168.102-.264L203.14 2.8h.852V7h-.912V4.918c0-.024 0-.059.006-.128v-.004zM204.892 7V2.8h3.018v.864h-2.106v.738h1.176v.864h-1.176v.864h2.226V7h-3.138z" fill="#FFF"/><g><g transform="translate(244)"><use fill-opacity=".2" fill="#31C7C3" xlink:href="#i"/><path stroke-opacity=".4" stroke="#31C7C3" d="M16.793.5H4A3.5 3.5 0 0 0 .5 4v37A3.5 3.5 0 0 0 4 44.5h45a3.5 3.5 0 0 0 3.5-3.5V10A3.5 3.5 0 0 0 49 6.5H22.793l-6-6z"/></g><g transform="translate(244)"><use fill-opacity=".2" fill="#31C7C3" xlink:href="#j"/><rect stroke-opacity=".4" stroke="#31C7C3" x=".5" y="10.5" width="52" height="34" rx="4"/></g><path d="M248.45 7V2.8h.912v3.318h2.016V7h-2.928zm5.136.072c-1.362 0-1.866-1.134-1.866-2.172 0-1.038.504-2.172 1.866-2.172 1.356 0 1.86 1.134 1.86 2.172 0 1.038-.504 2.172-1.86 2.172zm0-.882c.666 0 .912-.732.912-1.29 0-.594-.222-1.296-.912-1.296-.696 0-.918.732-.918 1.296 0 .582.228 1.29.918 1.29zm4.224.87c-1.32 0-1.77-1.122-1.77-2.16 0-.954.462-2.16 1.77-2.16.81 0 1.338.498 1.542 1.008l-.816.366c-.21-.318-.396-.498-.726-.498-.624 0-.822.708-.822 1.284 0 .594.246 1.284.822 1.284.306 0 .522-.222.714-.54l.834.312c-.3.648-.774 1.104-1.548 1.104z" fill="#FFF"/></g><g><g transform="translate(305)"><use fill-opacity=".2" fill="#31C7C3" xlink:href="#k"/><path stroke-opacity=".4" stroke="#31C7C3" d="M14.793.5H4A3.5 3.5 0 0 0 .5 4v37A3.5 3.5 0 0 0 4 44.5h45a3.5 3.5 0 0 0 3.5-3.5V10A3.5 3.5 0 0 0 49 6.5H20.793l-6-6z"/></g><g transform="translate(305)"><use fill-opacity=".2" fill="#31C7C3" xlink:href="#l"/><rect stroke-opacity=".4" stroke="#31C7C3" x=".5" y="10.5" width="52" height="34" rx="4"/></g><path d="M312.516 4.786v.004-.004zm0 0c-.03.072-.036.084-.054.12l-1.02 2.166-1.032-2.154a1.39 1.39 0 0 1-.048-.132V7h-.912V2.8h.93l.978 2.142c.042.096.072.18.102.264.03-.084.06-.168.102-.264L312.57 2.8h.852V7h-.912V4.918c0-.024 0-.059.006-.128v-.004zM316.884 7l-.864-1.326L315.156 7h-1.074l1.404-2.16-1.326-2.04h1.074l.786 1.206.78-1.206h1.08l-1.32 2.04L317.958 7h-1.074z" fill="#FFF"/></g><g><g transform="translate(366)"><use fill-opacity=".2" fill="#31C7C3" xlink:href="#m"/><path stroke-opacity=".4" stroke="#31C7C3" d="M13.793.5H4A3.5 3.5 0 0 0 .5 4v37A3.5 3.5 0 0 0 4 44.5h45a3.5 3.5 0 0 0 3.5-3.5V10A3.5 3.5 0 0 0 49 6.5H19.793l-6-6z"/></g><g transform="translate(366)"><use fill-opacity=".2" fill="#31C7C3" xlink:href="#n"/><rect stroke-opacity=".4" stroke="#31C7C3" x=".5" y="10.5" width="52" height="34" rx="4"/></g><path d="M373 5.314a3.085 3.085 0 0 1-.018-.318V2.8h.912V7h-.798l-1.584-2.226a2.747 2.747 0 0 1-.173-.304c.011.088.011.226.011.304V7h-.9V2.8h.834l1.542 2.202c.04.058.13.21.17.302l.004.01zm-1.66-.844a3.53 3.53 0 0 1-.008-.014l.007.014zm4.894 2.602c-.816 0-1.434-.462-1.686-1.23l.816-.306c.186.396.51.672.894.672.378 0 .63-.144.63-.432 0-.294-.36-.408-.798-.546-.63-.204-1.374-.438-1.374-1.314 0-.648.534-1.188 1.47-1.188.774 0 1.296.456 1.458 1.05l-.816.264c-.114-.258-.312-.45-.69-.45-.33 0-.51.12-.51.342 0 .216.324.318.714.45.636.204 1.458.468 1.458 1.398 0 .816-.69 1.29-1.566 1.29z" fill="#FFF"/></g><g><g transform="translate(427)"><use fill-opacity=".2" fill="#31C7C3" xlink:href="#o"/><path stroke-opacity=".4" stroke="#31C7C3" d="M16.793.5H4A3.5 3.5 0 0 0 .5 4v37A3.5 3.5 0 0 0 4 44.5h45a3.5 3.5 0 0 0 3.5-3.5V10A3.5 3.5 0 0 0 49 6.5H22.793l-6-6z"/></g><g transform="translate(427)"><use fill-opacity=".2" fill="#31C7C3" xlink:href="#p"/><rect stroke-opacity=".4" stroke="#31C7C3" x=".5" y="10.5" width="52" height="34" rx="4"/></g><path d="M432.896 7.072c-.816 0-1.434-.462-1.686-1.23l.816-.306c.186.396.51.672.894.672.378 0 .63-.144.63-.432 0-.294-.36-.408-.798-.546-.63-.204-1.374-.438-1.374-1.314 0-.648.534-1.188 1.47-1.188.774 0 1.296.456 1.458 1.05l-.816.264c-.114-.258-.312-.45-.69-.45-.33 0-.51.12-.51.342 0 .216.324.318.714.45.636.204 1.458.468 1.458 1.398 0 .816-.69 1.29-1.566 1.29zm2.28-.072V2.8h1.86c1.08 0 1.464.678 1.464 1.35 0 .624-.42 1.344-1.464 1.344h-.948V7h-.912zm1.896-2.364c.348 0 .48-.258.48-.486 0-.21-.114-.486-.48-.486h-.984v.972h.984zM439.034 7V2.8h2.928v.864h-2.016v.738h1.266v.864h-1.266V7h-.912z" fill="#FFF"/></g><g><g transform="translate(488)"><use fill-opacity=".2" fill="#31C7C3" xlink:href="#q"/><path stroke-opacity=".4" stroke="#31C7C3" d="M17.793.5H4A3.5 3.5 0 0 0 .5 4v37A3.5 3.5 0 0 0 4 44.5h45a3.5 3.5 0 0 0 3.5-3.5V10A3.5 3.5 0 0 0 49 6.5H23.793l-6-6z"/></g><g transform="translate(488)"><use fill-opacity=".2" fill="#31C7C3" xlink:href="#r"/><rect stroke-opacity=".4" stroke="#31C7C3" x=".5" y="10.5" width="52" height="34" rx="4"/></g><path d="M493.896 7.072c-.816 0-1.434-.462-1.686-1.23l.816-.306c.186.396.51.672.894.672.378 0 .63-.144.63-.432 0-.294-.36-.408-.798-.546-.63-.204-1.374-.438-1.374-1.314 0-.648.534-1.188 1.47-1.188.774 0 1.296.456 1.458 1.05l-.816.264c-.114-.258-.312-.45-.69-.45-.33 0-.51.12-.51.342 0 .216.324.318.714.45.636.204 1.458.468 1.458 1.398 0 .816-.69 1.29-1.566 1.29zm2.28-.072V2.8h2.046c1.074 0 1.434.63 1.434 1.356 0 .462-.27 1.02-.762 1.224L499.68 7h-1.02l-.762-1.482h-.81V7h-.912zm.912-2.346h1.146c.36 0 .474-.234.474-.498 0-.246-.108-.492-.474-.492h-1.146v.99zM501.606 7l-1.512-4.2h.99l.906 2.646c.03.072.042.144.054.18.006-.036.024-.096.054-.18l.906-2.646h.978L502.476 7h-.87z" fill="#FFF"/></g><g><g transform="translate(549)"><use fill-opacity=".2" fill="#31C7C3" xlink:href="#s"/><path stroke-opacity=".4" stroke="#31C7C3" d="M16.793.5H4A3.5 3.5 0 0 0 .5 4v37A3.5 3.5 0 0 0 4 44.5h45a3.5 3.5 0 0 0 3.5-3.5V10A3.5 3.5 0 0 0 49 6.5H22.793l-6-6z"/></g><g transform="translate(549)"><use fill-opacity=".2" fill="#31C7C3" xlink:href="#t"/><rect stroke-opacity=".4" stroke="#31C7C3" x=".5" y="10.5" width="52" height="34" rx="4"/></g><path d="M555.298 3.676V7h-.912V3.676h-1.206V2.8h3.324v.876h-1.206zM559.69 7l-.864-1.326L557.962 7h-1.074l1.404-2.16-1.326-2.04h1.074l.786 1.206.78-1.206h1.08l-1.32 2.04L560.764 7h-1.074zm3.582-3.324V7h-.912V3.676h-1.206V2.8h3.324v.876h-1.206z" fill="#FFF"/></g></g></svg>