<svg xmlns="http://www.w3.org/2000/svg" xmlns:xlink="http://www.w3.org/1999/xlink" width="20" height="20" viewBox="0 0 20 20">
    <defs>
        <path id="a" d="M3 11h5a1 1 0 0 0 1-1V3a1 1 0 0 0-1-1H3a1 1 0 0 0-1 1v7a1 1 0 0 0 1 1zm0 7h5a1 1 0 0 0 1-1v-3a1 1 0 0 0-1-1H3a1 1 0 0 0-1 1v3a1 1 0 0 0 1 1zm9 0h5a1 1 0 0 0 1-1v-6a1 1 0 0 0-1-1h-5a1 1 0 0 0-1 1v6a1 1 0 0 0 1 1zM11 3v4a1 1 0 0 0 1 1h5a1 1 0 0 0 1-1V3a1 1 0 0 0-1-1h-5a1 1 0 0 0-1 1z"/>
    </defs>
    <g fill="none" fill-rule="nonzero">
        <use fill="#FFF" fill-rule="evenodd" xlink:href="#a"/>
        <path stroke="#8392AD" stroke-width="1.5" d="M3 10.25h5a.25.25 0 0 0 .25-.25V3A.25.25 0 0 0 8 2.75H3a.25.25 0 0 0-.25.25v7c0 .138.112.25.25.25zm0 7h5a.25.25 0 0 0 .25-.25v-3a.25.25 0 0 0-.25-.25H3a.25.25 0 0 0-.25.25v3c0 .138.112.25.25.25zm9 0h5a.25.25 0 0 0 .25-.25v-6a.25.25 0 0 0-.25-.25h-5a.25.25 0 0 0-.25.25v6c0 .138.112.25.25.25zM11.75 3v4c0 .138.112.25.25.25h5a.25.25 0 0 0 .25-.25V3a.25.25 0 0 0-.25-.25h-5a.25.25 0 0 0-.25.25z"/>
    </g>
</svg>
