<svg xmlns="http://www.w3.org/2000/svg" xmlns:xlink="http://www.w3.org/1999/xlink" width="32" height="24" viewBox="0 0 32 24">
    <defs>
        <rect id="a" width="26" height="4" x="3" y="18" rx="1"/>
        <rect id="b" width="8" height="6" x="12" y="17" rx="1"/>
        <rect id="c" width="26" height="11" x="3" y="2" rx="2"/>
        <circle id="d" cx="8.5" cy="7.5" r="2.5"/>
    </defs>
    <g fill="none" fill-rule="evenodd">
        <use fill="#FFF" xlink:href="#a"/>
        <rect width="25" height="3" x="3.5" y="18.5" stroke="#D7DAE0" rx="1"/>
        <use fill="#F0F2F5" xlink:href="#b"/>
        <rect width="7" height="5" x="12.5" y="17.5" stroke="#D7DAE0" rx="1"/>
        <use fill="#FFF" xlink:href="#c"/>
        <rect width="25" height="10" x="3.5" y="2.5" stroke="#D7DAE0" rx="2"/>
        <path fill="#102452" fill-opacity=".12" d="M18 7a1 1 0 1 1 0-2 1 1 0 0 1 0 2zm3 0a1 1 0 1 1 0-2 1 1 0 0 1 0 2zm3 0a1 1 0 1 1 0-2 1 1 0 0 1 0 2zm0 3a1 1 0 1 1 0-2 1 1 0 0 1 0 2zm-3 0a1 1 0 1 1 0-2 1 1 0 0 1 0 2zm-3 0a1 1 0 1 1 0-2 1 1 0 0 1 0 2z"/>
        <g>
            <use fill="#F0F2F5" xlink:href="#d"/>
            <circle cx="8.5" cy="7.5" r="2" stroke="#D7DAE0"/>
        </g>
    </g>
</svg>
