<svg xmlns="http://www.w3.org/2000/svg" xmlns:xlink="http://www.w3.org/1999/xlink" width="34" height="41" viewBox="0 0 34 41">
    <defs>
        <path id="a" d="M3.315 9.888A26.101 26.101 0 0 0 3 13.89C3 23.912 8.679 32.61 17 37c8.322-4.39 14-13.088 14-23.11 0-1.36-.115-2.693-.314-4.002 0 0-9.597-1.26-13.71-4.888-3.806 3.742-13.66 4.888-13.66 4.888z"/>
    </defs>
    <g fill="none" fill-rule="nonzero">
        <use fill="#31C7C3" fill-rule="evenodd" xlink:href="#a"/>
        <path stroke="#31C7C3" stroke-opacity=".2" stroke-width="3" d="M3.142 8.398c.104-.012.312-.039.607-.082a43.94 43.94 0 0 0 1.658-.276c1.714-.318 3.426-.73 5.013-1.244 2.477-.802 4.394-1.774 5.503-2.865l.996-.98 1.048.924c1.182 1.042 3.058 1.98 5.423 2.775 1.634.55 3.396.997 5.16 1.349.619.123 1.192.226 1.706.308.304.049.518.08.625.094L32 8.548l.17 1.115c.218 1.435.331 2.838.331 4.227 0 10.345-5.77 19.674-14.8 24.437l-.7.369-.7-.37C7.272 33.565 1.5 24.237 1.5 13.89c0-1.403.113-2.81.333-4.231l.175-1.129 1.134-.132z"/>
        <path fill="#FFF" d="M23.018 16l1.414 1.414-8.725 8.725L10 20.432l1.414-1.414 4.293 4.293z"/>
    </g>
</svg>
