<?xml version="1.0" encoding="UTF-8"?>
<svg width="12px" height="11px" viewBox="0 0 12 11" version="1.1" xmlns="http://www.w3.org/2000/svg" xmlns:xlink="http://www.w3.org/1999/xlink">
    <!-- Generator: Sketch 48.2 (47327) - http://www.bohemiancoding.com/sketch -->
    <title>Star</title>
    <desc>Created with Sketch.</desc>
    <defs></defs>
    <g id="Onboarding-(Select-Pool---Filter---Rating---Selected)---UI---Desktop" stroke="none" stroke-width="1" fill="none" fill-rule="evenodd" transform="translate(-1042.000000, -347.000000)" opacity="0.400000006">
        <g id="Dropdown---Rating" transform="translate(876.000000, 255.000000)" fill="#FFFFFF">
            <g id="3" transform="translate(114.000000, 70.000000)">
                <g id="Rating" transform="translate(16.000000, 22.000000)">
                    <g id="Table-/-Select-Pool-/-Rating-/-Star-/-On" transform="translate(36.000000, 0.000000)">
                        <path d="M6,9 L3.37002456,10.3826599 C3.12560227,10.5111603 2.82328869,10.4171871 2.69478829,10.1727648 C2.64361875,10.0754345 2.62596142,9.96395048 2.64454984,9.85557167 L3.14683045,6.92705098 L1.01913563,4.85306112 C0.821393839,4.66031051 0.817347686,4.34375388 1.01009829,4.14601209 C1.08685259,4.06727027 1.1874238,4.01602668 1.29624231,4.00021443 L4.23664424,3.57294902 L5.55163196,0.908492875 C5.67384311,0.660866045 5.97365603,0.559196546 6.22128286,0.681407693 C6.31988916,0.730072812 6.39970292,0.809886573 6.44836804,0.908492875 L7.76335576,3.57294902 L10.7037577,4.00021443 C10.9770301,4.03992324 11.1663708,4.29364466 11.126662,4.56691709 C11.1108498,4.67573561 11.0596062,4.77630681 10.9808644,4.85306112 L8.85316955,6.92705098 L9.35545016,9.85557167 C9.40213067,10.1277399 9.21933675,10.3862179 8.94716853,10.4328984 C8.83878972,10.4514868 8.72730568,10.4338294 8.62997544,10.3826599 L6,9 Z" id="Star"></path>
                    </g>
                </g>
            </g>
        </g>
    </g>
</svg>