<svg xmlns="http://www.w3.org/2000/svg" width="20" height="20"><path fill="#8392AD" stroke="#8392AD" stroke-width=".5" d="M9.026 18c3.723 0 6.777-2.912 7.01-6.578h1.515c.248 0 .449-.2.449-.448C18 6.026 13.974 2 9.026 2c-.248 0-.449.2-.449.449v1.516C4.912 4.197 2 7.251 2 10.975A7.034 7.034 0 0 0 9.026 18zm8.065-7.474H9.475V4.397l-.001-1.488a8.09 8.09 0 0 1 7.617 7.617zM8.577 4.862v6.112c0 .248.201.448.449.448h6.112a6.136 6.136 0 0 1-6.112 5.681 6.136 6.136 0 0 1-6.13-6.129 6.137 6.137 0 0 1 5.681-6.112z"/></svg>