<?xml version="1.0" encoding="UTF-8"?>
<svg width="12px" height="11px" viewBox="0 0 12 11" version="1.1" xmlns="http://www.w3.org/2000/svg" xmlns:xlink="http://www.w3.org/1999/xlink">
    <!-- Generator: Sketch 48.2 (47327) - http://www.bohemiancoding.com/sketch -->
    <title>Star</title>
    <desc>Created with Sketch.</desc>
    <defs></defs>
    <g id="Onboarding-(Select-Pool---Filter---Rating---Selected)---UI---Desktop" stroke="none" stroke-width="1" fill="none" fill-rule="evenodd" transform="translate(-1018.000000, -347.000000)">
        <g id="Dropdown---Rating" transform="translate(876.000000, 255.000000)" fill="#FFFFFF">
            <g id="3" transform="translate(114.000000, 70.000000)">
                <g id="Rating" transform="translate(16.000000, 22.000000)">
                    <g id="Table-/-Select-Pool-/-Rating-/-Star-/-On" transform="translate(12.000000, 0.000000)">
                        <path d="M6,9 L3.03374853,10.5594507 C2.8809846,10.6397634 2.69203861,10.5810301 2.61172586,10.4282662 C2.5797449,10.3674348 2.56870907,10.2977573 2.58032683,10.2300205 L3.14683045,6.92705098 L0.747082606,4.58787496 C0.623493988,4.46740583 0.620965142,4.26955794 0.741434271,4.14596932 C0.78940571,4.09675568 0.852262713,4.06472844 0.920274285,4.05484578 L4.23664424,3.57294902 L5.71976998,0.567808047 C5.79615194,0.413041278 5.98353502,0.349497841 6.13830178,0.425879808 C6.19993072,0.456295508 6.24981432,0.506179108 6.28023002,0.567808047 L7.76335576,3.57294902 L11.0797257,4.05484578 C11.250521,4.07966378 11.3688589,4.23823968 11.3440409,4.40903495 C11.3341583,4.47704652 11.302131,4.53990352 11.2529174,4.58787496 L8.85316955,6.92705098 L9.41967317,10.2300205 C9.44884848,10.4001257 9.33460229,10.5616744 9.16449715,10.5908497 C9.09676039,10.6024675 9.02708287,10.5914316 8.96625147,10.5594507 L6,9 Z" id="Star"></path>
                    </g>
                </g>
            </g>
        </g>
    </g>
</svg>