<svg xmlns="http://www.w3.org/2000/svg" width="20" height="20" viewBox="0 0 20 20">
    <path fill="none" fill-rule="evenodd" stroke="#8392AD" stroke-width="1.5" d="M6.375 4.908l-.295.21-2.82-.807a.75.75 0 0 0-.856.346l-.83 1.436a.75.75 0 0 0 .129.914l2.109 2.039-.034.359a6.337 6.337 0 0 0 0 1.19l.034.36-2.109 2.038a.75.75 0 0 0-.128.914l.829 1.436a.75.75 0 0 0 .855.346l2.821-.807.295.21c.323.23.668.43 1.03.595l.327.15.712 2.845a.75.75 0 0 0 .727.568h1.658a.75.75 0 0 0 .727-.568l.712-2.845.328-.15a6.243 6.243 0 0 0 1.03-.595l.294-.21 2.82.807a.75.75 0 0 0 .856-.346l.83-1.436a.75.75 0 0 0-.129-.914l-2.109-2.039.034-.359a6.337 6.337 0 0 0 0-1.19l-.034-.36 2.109-2.038a.75.75 0 0 0 .128-.914l-.829-1.436a.75.75 0 0 0-.855-.346l-2.821.807-.295-.21a6.243 6.243 0 0 0-1.03-.595l-.327-.15-.712-2.845A.75.75 0 0 0 10.83.75H9.17a.75.75 0 0 0-.727.568l-.712 2.845-.328.15a6.243 6.243 0 0 0-1.03.595zM10 12.75A2.752 2.752 0 0 1 7.25 10 2.752 2.752 0 0 1 10 7.25 2.752 2.752 0 0 1 12.75 10 2.752 2.752 0 0 1 10 12.75z"/>
</svg>
