<svg xmlns="http://www.w3.org/2000/svg" width="16" height="16" viewBox="0 0 16 16">
    <path fill="#647799" fill-rule="nonzero" d="M12.589 3.904a6.481 6.481 0 0 1 0 9.192 6.493 6.493 0 0 1-7.08 1.41 6.5 6.5 0 0 1 0-12.011 6.493 6.493 0 0 1 7.08 1.409zM6.725 7.847l.675.159-.775 2.732c-.05.186-.075.344-.1.503-.025.159-.025.318-.025.477 0 .132.075.264.175.37.125.133.3.186.6.186.125 0 .275-.027.425-.053.15-.027.3-.053.45-.106.15-.053.3-.133.425-.186.125-.079.25-.132.35-.211v-.424h-.8L9.15 7.132 8.95 7a4.7 4.7 0 0 0-.55.053c-.2.026-.425.053-.625.106-.2.026-.4.08-.6.132a4.54 4.54 0 0 0-.45.159v.397zm.95-2.773c0 .238.075.45.25.608a.903.903 0 0 0 .65.239c.275 0 .5-.08.675-.239.175-.158.25-.344.25-.608 0-.265-.075-.477-.25-.636-.15-.159-.4-.238-.675-.238-.25 0-.475.08-.65.238-.175.16-.25.37-.25.636z"/>
</svg>
