<svg xmlns="http://www.w3.org/2000/svg" width="20" height="20"><path fill="#8392AD" d="M18 3.632v4.736a.626.626 0 0 1-.62.632H2.62A.626.626 0 0 1 2 8.368V3.632C2 3.283 2.278 3 2.62 3h14.76c.342 0 .62.283.62.632zm-1.5.868h-13v3h13v-3zM18 16.368a.626.626 0 0 1-.62.632H2.62a.626.626 0 0 1-.62-.632v-4.736c0-.349.278-.632.62-.632h14.76c.342 0 .62.283.62.632v4.736zm-1.5-.868v-3h-13v3h13zm-5.752-.765v.015a.752.752 0 0 1-.53-1.28.752.752 0 0 1 1.226.24.697.697 0 0 1 .041.143.72.72 0 0 1 0 .293.697.697 0 0 1-.203.383.669.669 0 0 1-.116.093.613.613 0 0 1-.418.113zm-2.5 0v.015a.752.752 0 0 1-.53-1.28.752.752 0 0 1 1.226.24.697.697 0 0 1 .041.143.72.72 0 0 1 0 .293.697.697 0 0 1-.203.383.669.669 0 0 1-.116.093.613.613 0 0 1-.418.113zm-2.5 0v.015a.752.752 0 0 1-.53-1.28.752.752 0 0 1 1.226.24.697.697 0 0 1 .041.143.72.72 0 0 1 0 .293.697.697 0 0 1-.203.383.669.669 0 0 1-.116.093.613.613 0 0 1-.418.113zm5-8v.015a.752.752 0 0 1-.53-1.28.752.752 0 0 1 1.226.24.697.697 0 0 1 .041.143.72.72 0 0 1 0 .293.697.697 0 0 1-.203.383.669.669 0 0 1-.116.093.613.613 0 0 1-.418.113zm-2.5 0v.015a.752.752 0 0 1-.53-1.28.752.752 0 0 1 1.226.24.697.697 0 0 1 .041.143.72.72 0 0 1 0 .293.697.697 0 0 1-.203.383.669.669 0 0 1-.116.093.613.613 0 0 1-.418.113zm-2.5 0v.015a.752.752 0 0 1-.53-1.28.752.752 0 0 1 1.226.24.697.697 0 0 1 .041.143.72.72 0 0 1 0 .293.697.697 0 0 1-.203.383.669.669 0 0 1-.116.093.613.613 0 0 1-.418.113z"/></svg>
