<svg xmlns="http://www.w3.org/2000/svg" width="20" height="20" viewBox="0 0 20 20">
    <path fill="#198CFF" fill-rule="evenodd" d="M5.935 4.298c.36-.258.746-.481 1.153-.667l.624-2.495A1.5 1.5 0 0 1 9.167 0h1.658a1.5 1.5 0 0 1 1.455 1.136l.623 2.495c.407.186.793.41 1.154.667l2.473-.708a1.5 1.5 0 0 1 1.712.692l.828 1.436a1.5 1.5 0 0 1-.256 1.828l-1.85 1.788a7.087 7.087 0 0 1 0 1.332l1.85 1.788a1.5 1.5 0 0 1 .256 1.828l-.828 1.436a1.5 1.5 0 0 1-1.712.692l-2.473-.708c-.361.258-.747.481-1.154.667l-.623 2.495A1.5 1.5 0 0 1 10.825 20H9.167a1.5 1.5 0 0 1-1.455-1.136l-.624-2.495a6.993 6.993 0 0 1-1.153-.667l-2.474.708a1.5 1.5 0 0 1-1.711-.692L.92 14.282a1.5 1.5 0 0 1 .256-1.828l1.85-1.788a7.087 7.087 0 0 1 0-1.332l-1.85-1.788a1.5 1.5 0 0 1-.256-1.828l.829-1.436A1.5 1.5 0 0 1 3.46 3.59l2.474.708zM9.995 13c1.655 0 3-1.346 3-3s-1.345-3-3-3c-1.654 0-3 1.346-3 3s1.346 3 3 3z"/>
</svg>
