<svg xmlns="http://www.w3.org/2000/svg" xmlns:xlink="http://www.w3.org/1999/xlink" width="210" height="120"><defs><path id="a" d="M84 28.667c-17.5.555-36.389-5.445-56.667-18L20.667 19C40.406 32.111 61.517 38.667 84 38.667c22.483 0 43.594-6.556 63.333-19.667l-6.666-8.333C120.389 22.11 101.5 28.11 84 28.667z"/><filter id="b" width="102.4%" height="110.7%" x="-1.2%" y="-5.4%" filterUnits="objectBoundingBox"><feOffset dy="-3" in="SourceAlpha" result="shadowOffsetInner1"/><feComposite in="shadowOffsetInner1" in2="SourceAlpha" k2="-1" k3="1" operator="arithmetic" result="shadowInnerInner1"/><feColorMatrix in="shadowInnerInner1" values="0 0 0 0 0 0 0 0 0 0 0 0 0 0 0 0 0 0 0.08 0"/></filter><rect id="c" width="18.333" height="15" x="10" y="4" rx="3.333"/><filter id="d" width="127.3%" height="133.3%" x="-13.6%" y="-16.7%" filterUnits="objectBoundingBox"><feOffset dy="5" in="SourceAlpha" result="shadowOffsetInner1"/><feComposite in="shadowOffsetInner1" in2="SourceAlpha" k2="-1" k3="1" operator="arithmetic" result="shadowInnerInner1"/><feColorMatrix in="shadowInnerInner1" values="0 0 0 0 1 0 0 0 0 1 0 0 0 0 1 0 0 0 0.4 0"/></filter><rect id="e" width="18.333" height="15" x="10" y="4" rx="3.333"/><filter id="f" width="127.3%" height="133.3%" x="-13.6%" y="-16.7%" filterUnits="objectBoundingBox"><feOffset dy="5" in="SourceAlpha" result="shadowOffsetInner1"/><feComposite in="shadowOffsetInner1" in2="SourceAlpha" k2="-1" k3="1" operator="arithmetic" result="shadowInnerInner1"/><feColorMatrix in="shadowInnerInner1" values="0 0 0 0 1 0 0 0 0 1 0 0 0 0 1 0 0 0 0.4 0"/></filter><path id="h" d="M10 16.667h10v96.667H10z"/><filter id="g" width="340%" height="124.8%" x="-120%" y="-12.4%" filterUnits="objectBoundingBox"><feOffset in="SourceAlpha" result="shadowOffsetOuter1"/><feGaussianBlur in="shadowOffsetOuter1" result="shadowBlurOuter1" stdDeviation="4"/><feComposite in="shadowBlurOuter1" in2="SourceAlpha" operator="out" result="shadowBlurOuter1"/><feColorMatrix in="shadowBlurOuter1" values="0 0 0 0 0 0 0 0 0 0 0 0 0 0 0 0 0 0 0.05 0"/></filter><filter id="i" width="340%" height="124.8%" x="-120%" y="-12.4%" filterUnits="objectBoundingBox"><feOffset dx="-5" in="SourceAlpha" result="shadowOffsetInner1"/><feComposite in="shadowOffsetInner1" in2="SourceAlpha" k2="-1" k3="1" operator="arithmetic" result="shadowInnerInner1"/><feColorMatrix in="shadowInnerInner1" result="shadowMatrixInner1" values="0 0 0 0 0 0 0 0 0 0 0 0 0 0 0 0 0 0 0.04 0"/><feOffset dy="8" in="SourceAlpha" result="shadowOffsetInner2"/><feComposite in="shadowOffsetInner2" in2="SourceAlpha" k2="-1" k3="1" operator="arithmetic" result="shadowInnerInner2"/><feColorMatrix in="shadowInnerInner2" result="shadowMatrixInner2" values="0 0 0 0 0 0 0 0 0 0 0 0 0 0 0 0 0 0 0.08 0"/><feMerge><feMergeNode in="shadowMatrixInner1"/><feMergeNode in="shadowMatrixInner2"/></feMerge></filter><path id="k" d="M30 120c0-5.523-6.716-10-15-10-8.284 0-15 4.477-15 10h30z"/><filter id="j" width="180%" height="340%" x="-40%" y="-120%" filterUnits="objectBoundingBox"><feOffset in="SourceAlpha" result="shadowOffsetOuter1"/><feGaussianBlur in="shadowOffsetOuter1" result="shadowBlurOuter1" stdDeviation="4"/><feComposite in="shadowBlurOuter1" in2="SourceAlpha" operator="out" result="shadowBlurOuter1"/><feColorMatrix in="shadowBlurOuter1" values="0 0 0 0 0 0 0 0 0 0 0 0 0 0 0 0 0 0 0.05 0"/></filter><circle id="m" cx="15" cy="10" r="10"/><filter id="l" width="220%" height="220%" x="-60%" y="-60%" filterUnits="objectBoundingBox"><feOffset in="SourceAlpha" result="shadowOffsetOuter1"/><feGaussianBlur in="shadowOffsetOuter1" result="shadowBlurOuter1" stdDeviation="4"/><feComposite in="shadowBlurOuter1" in2="SourceAlpha" operator="out" result="shadowBlurOuter1"/><feColorMatrix in="shadowBlurOuter1" values="0 0 0 0 0 0 0 0 0 0 0 0 0 0 0 0 0 0 0.05 0"/></filter><filter id="n" width="195%" height="195%" x="-47.5%" y="-47.5%" filterUnits="objectBoundingBox"><feOffset dx="-2" dy="-3" in="SourceAlpha" result="shadowOffsetInner1"/><feComposite in="shadowOffsetInner1" in2="SourceAlpha" k2="-1" k3="1" operator="arithmetic" result="shadowInnerInner1"/><feColorMatrix in="shadowInnerInner1" values="0 0 0 0 0 0 0 0 0 0 0 0 0 0 0 0 0 0 0.04 0"/></filter><rect id="p" width="23.333" height="6.667" x="3.333" y="30" rx="1.667"/><filter id="o" width="202.9%" height="460%" x="-51.4%" y="-180%" filterUnits="objectBoundingBox"><feOffset in="SourceAlpha" result="shadowOffsetOuter1"/><feGaussianBlur in="shadowOffsetOuter1" result="shadowBlurOuter1" stdDeviation="4"/><feComposite in="shadowBlurOuter1" in2="SourceAlpha" operator="out" result="shadowBlurOuter1"/><feColorMatrix in="shadowBlurOuter1" values="0 0 0 0 0 0 0 0 0 0 0 0 0 0 0 0 0 0 0.05 0"/></filter><path id="r" d="M10 16.667h10v96.667H10z"/><filter id="q" width="340%" height="124.8%" x="-120%" y="-12.4%" filterUnits="objectBoundingBox"><feOffset in="SourceAlpha" result="shadowOffsetOuter1"/><feGaussianBlur in="shadowOffsetOuter1" result="shadowBlurOuter1" stdDeviation="4"/><feComposite in="shadowBlurOuter1" in2="SourceAlpha" operator="out" result="shadowBlurOuter1"/><feColorMatrix in="shadowBlurOuter1" values="0 0 0 0 0 0 0 0 0 0 0 0 0 0 0 0 0 0 0.05 0"/></filter><filter id="s" width="340%" height="124.8%" x="-120%" y="-12.4%" filterUnits="objectBoundingBox"><feOffset dx="-5" in="SourceAlpha" result="shadowOffsetInner1"/><feComposite in="shadowOffsetInner1" in2="SourceAlpha" k2="-1" k3="1" operator="arithmetic" result="shadowInnerInner1"/><feColorMatrix in="shadowInnerInner1" result="shadowMatrixInner1" values="0 0 0 0 0 0 0 0 0 0 0 0 0 0 0 0 0 0 0.04 0"/><feOffset dy="8" in="SourceAlpha" result="shadowOffsetInner2"/><feComposite in="shadowOffsetInner2" in2="SourceAlpha" k2="-1" k3="1" operator="arithmetic" result="shadowInnerInner2"/><feColorMatrix in="shadowInnerInner2" result="shadowMatrixInner2" values="0 0 0 0 0 0 0 0 0 0 0 0 0 0 0 0 0 0 0.08 0"/><feMerge><feMergeNode in="shadowMatrixInner1"/><feMergeNode in="shadowMatrixInner2"/></feMerge></filter><path id="u" d="M30 120c0-5.523-6.716-10-15-10-8.284 0-15 4.477-15 10h30z"/><filter id="t" width="180%" height="340%" x="-40%" y="-120%" filterUnits="objectBoundingBox"><feOffset in="SourceAlpha" result="shadowOffsetOuter1"/><feGaussianBlur in="shadowOffsetOuter1" result="shadowBlurOuter1" stdDeviation="4"/><feComposite in="shadowBlurOuter1" in2="SourceAlpha" operator="out" result="shadowBlurOuter1"/><feColorMatrix in="shadowBlurOuter1" values="0 0 0 0 0 0 0 0 0 0 0 0 0 0 0 0 0 0 0.05 0"/></filter><circle id="w" cx="15" cy="10" r="10"/><filter id="v" width="220%" height="220%" x="-60%" y="-60%" filterUnits="objectBoundingBox"><feOffset in="SourceAlpha" result="shadowOffsetOuter1"/><feGaussianBlur in="shadowOffsetOuter1" result="shadowBlurOuter1" stdDeviation="4"/><feComposite in="shadowBlurOuter1" in2="SourceAlpha" operator="out" result="shadowBlurOuter1"/><feColorMatrix in="shadowBlurOuter1" values="0 0 0 0 0 0 0 0 0 0 0 0 0 0 0 0 0 0 0.05 0"/></filter><filter id="x" width="195%" height="195%" x="-47.5%" y="-47.5%" filterUnits="objectBoundingBox"><feOffset dx="-2" dy="-3" in="SourceAlpha" result="shadowOffsetInner1"/><feComposite in="shadowOffsetInner1" in2="SourceAlpha" k2="-1" k3="1" operator="arithmetic" result="shadowInnerInner1"/><feColorMatrix in="shadowInnerInner1" values="0 0 0 0 0 0 0 0 0 0 0 0 0 0 0 0 0 0 0.04 0"/></filter><rect id="z" width="23.333" height="6.667" x="3.333" y="30" rx="1.667"/><filter id="y" width="202.9%" height="460%" x="-51.4%" y="-180%" filterUnits="objectBoundingBox"><feOffset in="SourceAlpha" result="shadowOffsetOuter1"/><feGaussianBlur in="shadowOffsetOuter1" result="shadowBlurOuter1" stdDeviation="4"/><feComposite in="shadowBlurOuter1" in2="SourceAlpha" operator="out" result="shadowBlurOuter1"/><feColorMatrix in="shadowBlurOuter1" values="0 0 0 0 0 0 0 0 0 0 0 0 0 0 0 0 0 0 0.05 0"/></filter></defs><g fill="none" fill-rule="evenodd"><g transform="translate(21 26)"><use fill="#FF9B7E" xlink:href="#a"/><use fill="#000" filter="url(#b)" xlink:href="#a"/><path stroke="#E1896F" d="M27.447 11.325l-6.048 7.56C40.926 31.74 61.79 38.167 84 38.167s43.074-6.426 62.6-19.282l-6.058-7.574c-20.204 11.346-39.046 17.3-56.526 17.855-17.499.556-36.356-5.396-56.569-17.841z"/></g><path stroke="#969799" stroke-linecap="round" stroke-width="2" d="M25 39.167c-2.778-2.778-3.333-5.278-1.667-7.5 2.5-3.334 5-3.334 6.667-2.5 1.111.555 3.611 2.222 7.5 5"/><g transform="rotate(35 -11.23 58.859)"><use fill="#FFDD73" xlink:href="#c"/><use fill="#000" filter="url(#d)" xlink:href="#c"/><rect width="17.333" height="14" x="10.5" y="4.5" stroke="#D5BD6F" rx="3.333"/></g><path stroke="#969799" stroke-linecap="round" stroke-width="2" d="M185 39.167c2.778-2.778 3.333-5.278 1.667-7.5-2.5-3.334-5-3.334-6.667-2.5-1.111.555-3.611 2.222-7.5 5"/><g transform="scale(-1 1) rotate(35 -116.23 -274.159)"><use fill="#FFDD73" xlink:href="#e"/><use fill="#000" filter="url(#f)" xlink:href="#e"/><rect width="17.333" height="14" x="10.5" y="4.5" stroke="#D5BD6F" rx="3.333"/></g><use fill="#000" filter="url(#g)" xlink:href="#h"/><use fill="#F2F2F4" xlink:href="#h"/><use fill="#000" filter="url(#i)" xlink:href="#h"/><path stroke="#B2B6C2" d="M10.5 17.167h9v95.667h-9z"/><use fill="#000" filter="url(#j)" xlink:href="#k"/><use fill="#F2F2F4" xlink:href="#k"/><path stroke="#B2B6C2" d="M29.48 119.5c-.399-4.967-6.699-9-14.48-9-7.781 0-14.081 4.033-14.48 9h28.96z"/><use fill="#000" filter="url(#l)" xlink:href="#m"/><use fill="#F2F2F4" xlink:href="#m"/><use fill="#000" filter="url(#n)" xlink:href="#m"/><circle cx="15" cy="10" r="9.5" stroke="#B2B6C2"/><path fill="#FFF" d="M10 6.667c1.667-1.667 3.462-1.953 4.296-1.12.833.834.833 3.62 0 4.453-.834.833-3.463 1.667-4.296.833-.833-.833-1.667-2.5 0-4.166z"/><use fill="#000" filter="url(#o)" xlink:href="#p"/><use fill="#F2F2F4" xlink:href="#p"/><rect width="22.333" height="5.667" x="3.833" y="30.5" stroke="#B2B6C2" rx="1.667"/><g><g transform="translate(180)"><use fill="#000" filter="url(#q)" xlink:href="#r"/><use fill="#F2F2F4" xlink:href="#r"/><use fill="#000" filter="url(#s)" xlink:href="#r"/><path stroke="#B2B6C2" d="M10.5 17.167h9v95.667h-9z"/></g><g transform="translate(180)"><use fill="#000" filter="url(#t)" xlink:href="#u"/><use fill="#F2F2F4" xlink:href="#u"/><path stroke="#B2B6C2" d="M29.48 119.5c-.399-4.967-6.699-9-14.48-9-7.781 0-14.081 4.033-14.48 9h28.96z"/></g><g transform="translate(180)"><use fill="#000" filter="url(#v)" xlink:href="#w"/><use fill="#F2F2F4" xlink:href="#w"/><use fill="#000" filter="url(#x)" xlink:href="#w"/><circle cx="15" cy="10" r="9.5" stroke="#B2B6C2"/></g><path fill="#FFF" d="M190 6.667c1.667-1.667 3.462-1.953 4.296-1.12.833.834.833 3.62 0 4.453-.834.833-3.463 1.667-4.296.833-.833-.833-1.667-2.5 0-4.166z"/><g transform="translate(180)"><use fill="#000" filter="url(#y)" xlink:href="#z"/><use fill="#F2F2F4" xlink:href="#z"/><rect width="22.333" height="5.667" x="3.833" y="30.5" stroke="#B2B6C2" rx="1.667"/></g></g></g></svg>
