<svg xmlns="http://www.w3.org/2000/svg" xmlns:xlink="http://www.w3.org/1999/xlink" width="20" height="20"><defs><path id="a" d="M18 16.368a.626.626 0 0 1-.62.632H2.62a.626.626 0 0 1-.62-.632v-4.736c0-.349.278-.632.62-.632h14.76c.342 0 .62.283.62.632v4.736zm-7.25-1.618a.75.75 0 1 0 0-1.5.75.75 0 0 0 0 1.5zm-2.5 0a.75.75 0 1 0 0-1.5.75.75 0 0 0 0 1.5zm-2.5 0a.75.75 0 1 0 0-1.5.75.75 0 0 0 0 1.5zM18 3.632v4.736a.626.626 0 0 1-.62.632H2.62A.626.626 0 0 1 2 8.368V3.632C2 3.283 2.278 3 2.62 3h14.76c.342 0 .62.283.62.632zM10.75 6.75a.75.75 0 1 0 0-1.5.75.75 0 0 0 0 1.5zm-2.5 0a.75.75 0 1 0 0-1.5.75.75 0 0 0 0 1.5zm-2.5 0a.75.75 0 1 0 0-1.5.75.75 0 0 0 0 1.5z"/></defs><g fill="none"><use fill="#198CFF" fill-rule="evenodd" xlink:href="#a"/><path stroke="#198CFF" stroke-width="1.5" d="M17.25 16.25v-4.5H2.75v4.5h14.5zm-6.5-.75a1.5 1.5 0 1 1 0-3 1.5 1.5 0 0 1 0 3zm-2.5 0a1.5 1.5 0 1 1 0-3 1.5 1.5 0 0 1 0 3zm-2.5 0a1.5 1.5 0 1 1 0-3 1.5 1.5 0 0 1 0 3zm11.5-11.75H2.75v4.5h14.5v-4.5zm-6.5 3.75a1.5 1.5 0 1 1 0-3 1.5 1.5 0 0 1 0 3zm-2.5 0a1.5 1.5 0 1 1 0-3 1.5 1.5 0 0 1 0 3zm-2.5 0a1.5 1.5 0 1 1 0-3 1.5 1.5 0 0 1 0 3z"/></g></svg>