<svg xmlns="http://www.w3.org/2000/svg" width="24" height="24"><path fill="#A2B5D2" d="M23.998 12.457L24 12.5l-.001.043-.003.042-.007.048a.862.862 0 0 1-.24.473c-.241.286-.505.554-.77.817-1.433 1.422-3.077 2.69-4.878 3.61-1.15.588-2.38 1.062-3.655 1.29-1.402.25-2.806.238-4.2-.058-2.413-.513-4.6-1.787-6.511-3.31-.888-.706-1.76-1.48-2.494-2.35-.321-.38-.321-.83 0-1.21.24-.287.505-.555.77-.818 1.433-1.422 3.077-2.69 4.878-3.61 1.15-.588 2.38-1.062 3.655-1.29a10.857 10.857 0 0 1 4.2.058c2.413.513 4.599 1.787 6.51 3.31.888.706 1.76 1.48 2.494 2.35a.863.863 0 0 1 .241.475l.006.045.003.042zM12.5 16.925a4.425 4.425 0 1 0 0-8.85 4.425 4.425 0 0 0 0 8.85zm0-2.96a1.465 1.465 0 1 1 0-2.93 1.465 1.465 0 0 1 0 2.93z"/></svg>