<svg width="18" height="18" xmlns="http://www.w3.org/2000/svg"><path d="M16.472 10.928H18V7.071h-1.528c-1.55 0-1.92-.895-.827-1.99l1.083-1.082-2.729-2.727-1.08 1.081c-1.096 1.096-1.992.724-1.989-.824l-.002-.01V0H7.072v1.534c-.004 1.544-.897 1.913-1.991.82L3.999 1.272 1.272 3.999 2.353 5.08c1.096 1.094.724 1.99-.823 1.99H0v3.857h1.53c1.547 0 1.918.895.824 1.99L1.272 14 4 16.728l1.082-1.083c1.094-1.093 1.987-.724 1.991.82V18h3.856v-1.52l.002-.01c-.003-1.547.894-1.917 1.989-.825L14 16.728 16.729 14l-1.083-1.081c-1.093-1.096-.723-1.991.827-1.991zM9 12.375a3.375 3.375 0 1 1 0-6.75 3.375 3.375 0 0 1 0 6.75z" fill="#FFF" opacity=".4"/></svg>