<svg width="16" height="14" xmlns="http://www.w3.org/2000/svg"><g fill="none"><path d="M16 2.029a14.506 14.506 0 0 1-.316 1.642c-.13.534-.292 1.059-.478 1.57a13.216 13.216 0 0 0-4.512-1.83c-.007-.003-.016-.003-.026-.006a12.935 12.935 0 0 0-1.614-.223c-.12-.01-.244-.02-.364-.026a16.712 16.712 0 0 0-1.38 0c-.12.007-.244.016-.364.026-.55.04-1.087.116-1.614.223-.01.003-.02.003-.026.006a13.046 13.046 0 0 0-3.074 1.03c-.498.236-.976.502-1.435.798a14.833 14.833 0 0 1-.481-1.565A15.47 15.47 0 0 1 0 2.03a15.812 15.812 0 0 1 1.552-.744A15.636 15.636 0 0 1 3.139.713 17.169 17.169 0 0 1 4.75.314C5.28.21 5.82.132 6.37.08h.007A16.281 16.281 0 0 1 8 0c.55 0 1.09.025 1.623.079h.007c.55.053 1.09.131 1.62.235a16.736 16.736 0 0 1 3.198.967c.534.223 1.051.472 1.552.748" fill="#0A2052"/><path d="M14.783 6.865c-.144.304-.302.6-.468.895h-.004a14.24 14.24 0 0 1-.307.527 17.868 17.868 0 0 1-.92 1.324 14.922 14.922 0 0 1-1.048 1.23c-.294.314-.602.614-.92.899a16.443 16.443 0 0 1-2.942 2.125 15.785 15.785 0 0 1-1.548-.997A15.101 15.101 0 0 1 5.23 11.74a15.016 15.016 0 0 1-1.227-1.238 14.922 14.922 0 0 1-.737-.891 8.471 8.471 0 0 1-.327-.442 13.38 13.38 0 0 1-.592-.885 15.831 15.831 0 0 1-.782-1.419c.444-.31.916-.588 1.407-.831.484-.243.988-.45 1.509-.623.154.32.32.636.497.943a13.515 13.515 0 0 0 .903 1.34c.141.178.285.357.433.53.203.236.412.463.635.684.245.252.504.495.772.719.148.13.298.255.452.374a8.78 8.78 0 0 0 .452-.374c.268-.224.527-.467.772-.72.223-.22.432-.447.635-.683.147-.173.291-.352.432-.53a13.515 13.515 0 0 0 .904-1.343c.18-.307.343-.62.497-.94.52.172 1.025.38 1.51.623.49.243.961.52 1.407.831" fill="#31C7C3"/></g></svg>