<svg width="18" height="17" xmlns="http://www.w3.org/2000/svg"><path d="M15.341 0H2.655C1.19 0 0 1.222 0 2.72v13.444c0 .303.16.586.422.732a.806.806 0 0 0 .83-.025l3.088-1.994h11.001c1.466 0 2.659-1.22 2.659-2.72V2.72C18 1.222 16.807 0 15.341 0zM7.58 11.328a.9.9 0 0 1 .271-.67.93.93 0 0 1 .682-.27.91.91 0 0 1 .674.27.9.9 0 0 1 .268.67.94.94 0 0 1-.262.68.92.92 0 0 1-.68.27.923.923 0 0 1-.682-.276.94.94 0 0 1-.271-.674zm3.706-5.5a2.37 2.37 0 0 1-.245.592 2.96 2.96 0 0 1-.398.537c-.159.17-.342.346-.55.53a6.646 6.646 0 0 0-.362.342c-.108.107-.194.21-.263.313a1.205 1.205 0 0 0-.211.725c0 .103.01.206.038.313a.826.826 0 0 0 .104.264H7.83a1.794 1.794 0 0 1-.093-.371 2.579 2.579 0 0 1 .02-.92 2.073 2.073 0 0 1 .429-.86c.108-.13.232-.258.377-.383.149-.136.284-.262.395-.38a2.57 2.57 0 0 0 .29-.345c.08-.118.138-.24.18-.364.038-.122.059-.262.059-.412 0-.133-.025-.254-.066-.365a.855.855 0 0 0-.187-.29.92.92 0 0 0-.3-.192 1.089 1.089 0 0 0-.388-.066 2.5 2.5 0 0 0-.968.206 3.146 3.146 0 0 0-.947.622V3.418c.307-.195.64-.342 1.002-.438.36-.099.733-.147 1.12-.147.37 0 .713.044 1.03.13.319.087.596.224.83.411.24.184.422.423.554.71.135.29.2.64.2 1.045 0 .258-.027.49-.083.699z" fill="#FFF" opacity=".4"/></svg>