<?xml version="1.0" encoding="UTF-8"?>
<svg width="602px" height="45px" viewBox="0 0 602 45" version="1.1" xmlns="http://www.w3.org/2000/svg" xmlns:xlink="http://www.w3.org/1999/xlink">
    <!-- Generator: Sketch 48.2 (47327) - http://www.bohemiancoding.com/sketch -->
    <title>scanned-records</title>
    <desc>Created with Sketch.</desc>
    <defs>
        <path d="M0,6 L0,4 C-2.705415e-16,1.790861 1.790861,-3.82769592e-17 4,-4.4408921e-16 L10,0 L16,6 L49,6 C51.209139,6 53,7.790861 53,10 L53,41 C53,43.209139 51.209139,45 49,45 L4,45 C1.790861,45 2.705415e-16,43.209139 0,41 L0,6 Z" id="path-1"></path>
        <rect id="path-2" x="0" y="10" width="53" height="35" rx="4"></rect>
        <path d="M0,6 L0,4 C-2.705415e-16,1.790861 1.790861,-3.82769592e-17 4,-4.4408921e-16 L23,0 L29,6 L49,6 C51.209139,6 53,7.790861 53,10 L53,41 C53,43.209139 51.209139,45 49,45 L4,45 C1.790861,45 2.705415e-16,43.209139 0,41 L0,6 Z" id="path-3"></path>
        <rect id="path-4" x="0" y="10" width="53" height="35" rx="4"></rect>
        <path d="M0,6 L0,4 C-2.705415e-16,1.790861 1.790861,-3.82769592e-17 4,-4.4408921e-16 L18,0 L24,6 L49,6 C51.209139,6 53,7.790861 53,10 L53,41 C53,43.209139 51.209139,45 49,45 L4,45 C1.790861,45 2.705415e-16,43.209139 0,41 L0,6 Z" id="path-5"></path>
        <rect id="path-6" x="0" y="10" width="53" height="35" rx="4"></rect>
        <path d="M0,6 L0,4 C-2.705415e-16,1.790861 1.790861,-3.82769592e-17 4,-4.4408921e-16 L27,0 L33,6 L49,6 C51.209139,6 53,7.790861 53,10 L53,41 C53,43.209139 51.209139,45 49,45 L4,45 C1.790861,45 2.705415e-16,43.209139 0,41 L0,6 Z" id="path-7"></path>
        <rect id="path-8" x="0" y="10" width="53" height="35" rx="4"></rect>
        <path d="M0,6 L0,4 C-2.705415e-16,1.790861 1.790861,-3.82769592e-17 4,-4.4408921e-16 L17,0 L23,6 L49,6 C51.209139,6 53,7.790861 53,10 L53,41 C53,43.209139 51.209139,45 49,45 L4,45 C1.790861,45 2.705415e-16,43.209139 0,41 L0,6 Z" id="path-9"></path>
        <rect id="path-10" x="0" y="10" width="53" height="35" rx="4"></rect>
        <path d="M0,6 L0,4 C-2.705415e-16,1.790861 1.790861,-3.82769592e-17 4,-4.4408921e-16 L15,0 L21,6 L49,6 C51.209139,6 53,7.790861 53,10 L53,41 C53,43.209139 51.209139,45 49,45 L4,45 C1.790861,45 2.705415e-16,43.209139 0,41 L0,6 Z" id="path-11"></path>
        <rect id="path-12" x="0" y="10" width="53" height="35" rx="4"></rect>
        <path d="M0,6 L0,4 C-2.705415e-16,1.790861 1.790861,-3.82769592e-17 4,-4.4408921e-16 L14,0 L20,6 L49,6 C51.209139,6 53,7.790861 53,10 L53,41 C53,43.209139 51.209139,45 49,45 L4,45 C1.790861,45 2.705415e-16,43.209139 0,41 L0,6 Z" id="path-13"></path>
        <rect id="path-14" x="0" y="10" width="53" height="35" rx="4"></rect>
        <path d="M0,6 L0,4 C-2.705415e-16,1.790861 1.790861,-3.82769592e-17 4,-4.4408921e-16 L17,0 L23,6 L49,6 C51.209139,6 53,7.790861 53,10 L53,41 C53,43.209139 51.209139,45 49,45 L4,45 C1.790861,45 2.705415e-16,43.209139 0,41 L0,6 Z" id="path-15"></path>
        <rect id="path-16" x="0" y="10" width="53" height="35" rx="4"></rect>
        <path d="M0,6 L0,4 C-2.705415e-16,1.790861 1.790861,-3.82769592e-17 4,-4.4408921e-16 L18,0 L24,6 L49,6 C51.209139,6 53,7.790861 53,10 L53,41 C53,43.209139 51.209139,45 49,45 L4,45 C1.790861,45 2.705415e-16,43.209139 0,41 L0,6 Z" id="path-17"></path>
        <rect id="path-18" x="0" y="10" width="53" height="35" rx="4"></rect>
        <path d="M0,6 L0,4 C-2.705415e-16,1.790861 1.790861,-3.82769592e-17 4,-4.4408921e-16 L17,0 L23,6 L49,6 C51.209139,6 53,7.790861 53,10 L53,41 C53,43.209139 51.209139,45 49,45 L4,45 C1.790861,45 2.705415e-16,43.209139 0,41 L0,6 Z" id="path-19"></path>
        <rect id="path-20" x="0" y="10" width="53" height="35" rx="4"></rect>
    </defs>
    <g id="Onboarding-(Scanning-DNS-Records)---UI---Desktop" stroke="none" stroke-width="1" fill="none" fill-rule="evenodd" transform="translate(-450.000000, -142.000000)">
        <g id="illustration-scanning-dns-records" transform="translate(450.000000, 120.000000)">
            <g id="scanner">
                <g id="screen" transform="translate(0.000000, 10.000000)">
                    <g id="scanned-records" transform="translate(0.000000, 12.000000)">
                        <g id="record-a">
                            <g id="Combined-Shape">
                                <use fill-opacity="0.200000003" fill="#31C7C3" fill-rule="evenodd" xlink:href="#path-1"></use>
                                <path stroke-opacity="0.4" stroke="#31C7C3" stroke-width="1" d="M9.79289322,0.5 L4,0.5 C2.06700338,0.5 0.5,2.06700338 0.5,4 L0.5,41 C0.5,42.9329966 2.06700338,44.5 4,44.5 L49,44.5 C50.9329966,44.5 52.5,42.9329966 52.5,41 L52.5,10 C52.5,8.06700338 50.9329966,6.5 49,6.5 L15.7928932,6.5 L9.79289322,0.5 Z"></path>
                            </g>
                            <g id="Combined-Shape">
                                <use fill-opacity="0.200000003" fill="#31C7C3" fill-rule="evenodd" xlink:href="#path-2"></use>
                                <rect stroke-opacity="0.4" stroke="#31C7C3" stroke-width="1" x="0.5" y="10.5" width="52" height="34" rx="4"></rect>
                            </g>
                            <path d="M7.312,7 L7,6.184 L5.422,6.184 L5.11,7 L4.114,7 L5.77,2.8 L6.646,2.8 L8.308,7 L7.312,7 Z M6.21013209,4.09159434 C6.20940871,4.08904407 6.20869786,4.08651229 6.20799355,4.084 C6.20799355,4.084 6.2079957,4.08401936 6.20799355,4.08402904 L6.21013209,4.09159434 Z M6.20799355,4.08402904 C6.18398924,4.19202581 6.12399624,4.33600914 6.082,4.438 L5.722,5.344 L6.694,5.344 L6.334,4.438 C6.292977,4.33837272 6.2405058,4.19867672 6.21013209,4.09159434 L6.20799355,4.08402904 Z" id="A" fill="#FFFFFF"></path>
                        </g>
                        <g id="record-aaaa" transform="translate(61.000000, 0.000000)">
                            <g id="Combined-Shape">
                                <use fill-opacity="0.200000003" fill="#31C7C3" fill-rule="evenodd" xlink:href="#path-3"></use>
                                <path stroke-opacity="0.4" stroke="#31C7C3" stroke-width="1" d="M22.7928932,0.5 L4,0.5 C2.06700338,0.5 0.5,2.06700338 0.5,4 L0.5,41 C0.5,42.9329966 2.06700338,44.5 4,44.5 L49,44.5 C50.9329966,44.5 52.5,42.9329966 52.5,41 L52.5,10 C52.5,8.06700338 50.9329966,6.5 49,6.5 L28.7928932,6.5 L22.7928932,0.5 Z"></path>
                            </g>
                            <g id="Combined-Shape">
                                <use fill-opacity="0.200000003" fill="#31C7C3" fill-rule="evenodd" xlink:href="#path-4"></use>
                                <rect stroke-opacity="0.4" stroke="#31C7C3" stroke-width="1" x="0.5" y="10.5" width="52" height="34" rx="4"></rect>
                            </g>
                            <path d="M7.312,7 L7,6.184 L5.422,6.184 L5.11,7 L4.114,7 L5.77,2.8 L6.646,2.8 L8.308,7 L7.312,7 Z M6.21013209,4.09159434 C6.20940871,4.08904407 6.20869786,4.08651229 6.20799355,4.084 C6.20799355,4.084 6.2079957,4.08401936 6.20799355,4.08402904 L6.21013209,4.09159434 Z M6.20799355,4.08402904 C6.18398924,4.19202581 6.12399624,4.33600914 6.082,4.438 L5.722,5.344 L6.694,5.344 L6.334,4.438 C6.292977,4.33837272 6.2405058,4.19867672 6.21013209,4.09159434 L6.20799355,4.08402904 Z M11.734,7 L11.422,6.184 L9.844,6.184 L9.532,7 L8.536,7 L10.192,2.8 L11.068,2.8 L12.73,7 L11.734,7 Z M10.6321321,4.09159434 C10.6314087,4.08904407 10.6306979,4.08651229 10.6299935,4.084 C10.6299935,4.084 10.6299957,4.08401936 10.6299935,4.08402904 L10.6321321,4.09159434 Z M10.6299935,4.08402904 C10.6059892,4.19202581 10.5459962,4.33600914 10.504,4.438 L10.144,5.344 L11.116,5.344 L10.756,4.438 C10.714977,4.33837272 10.6625058,4.19867672 10.6321321,4.09159434 L10.6299935,4.08402904 Z M16.156,7 L15.844,6.184 L14.266,6.184 L13.954,7 L12.958,7 L14.614,2.8 L15.49,2.8 L17.152,7 L16.156,7 Z M15.0541321,4.09159434 C15.0534087,4.08904407 15.0526979,4.08651229 15.0519935,4.084 C15.0519935,4.084 15.0519957,4.08401936 15.0519935,4.08402904 L15.0541321,4.09159434 Z M15.0519935,4.08402904 C15.0279892,4.19202581 14.9679962,4.33600914 14.926,4.438 L14.566,5.344 L15.538,5.344 L15.178,4.438 C15.136977,4.33837272 15.0845058,4.19867672 15.0541321,4.09159434 L15.0519935,4.08402904 Z M20.578,7 L20.266,6.184 L18.688,6.184 L18.376,7 L17.38,7 L19.036,2.8 L19.912,2.8 L21.574,7 L20.578,7 Z M19.4761321,4.09159434 C19.4754087,4.08904407 19.4746979,4.08651229 19.4739935,4.084 C19.4739935,4.084 19.4739957,4.08401936 19.4739935,4.08402904 L19.4761321,4.09159434 Z M19.4739935,4.08402904 C19.4499892,4.19202581 19.3899962,4.33600914 19.348,4.438 L18.988,5.344 L19.96,5.344 L19.6,4.438 C19.558977,4.33837272 19.5065058,4.19867672 19.4761321,4.09159434 L19.4739935,4.08402904 Z" id="AAAA" fill="#FFFFFF"></path>
                        </g>
                        <g id="record-caa" transform="translate(122.000000, 0.000000)">
                            <g id="Combined-Shape">
                                <use fill-opacity="0.200000003" fill="#31C7C3" fill-rule="evenodd" xlink:href="#path-5"></use>
                                <path stroke-opacity="0.4" stroke="#31C7C3" stroke-width="1" d="M17.7928932,0.5 L4,0.5 C2.06700338,0.5 0.5,2.06700338 0.5,4 L0.5,41 C0.5,42.9329966 2.06700338,44.5 4,44.5 L49,44.5 C50.9329966,44.5 52.5,42.9329966 52.5,41 L52.5,10 C52.5,8.06700338 50.9329966,6.5 49,6.5 L23.7928932,6.5 L17.7928932,0.5 Z"></path>
                            </g>
                            <g id="Combined-Shape">
                                <use fill-opacity="0.200000003" fill="#31C7C3" fill-rule="evenodd" xlink:href="#path-6"></use>
                                <rect stroke-opacity="0.4" stroke="#31C7C3" stroke-width="1" x="0.5" y="10.5" width="52" height="34" rx="4"></rect>
                            </g>
                            <path d="M6.07,7.06 C4.75,7.06 4.3,5.938 4.3,4.9 C4.3,3.946 4.762,2.74 6.07,2.74 C6.88,2.74 7.408,3.238 7.612,3.748 L6.796,4.114 C6.586,3.796 6.4,3.616 6.07,3.616 C5.446,3.616 5.248,4.324 5.248,4.9 C5.248,5.494 5.494,6.184 6.07,6.184 C6.376,6.184 6.592,5.962 6.784,5.644 L7.618,5.956 C7.318,6.604 6.844,7.06 6.07,7.06 Z M11.122,7 L10.81,6.184 L9.232,6.184 L8.92,7 L7.924,7 L9.58,2.8 L10.456,2.8 L12.118,7 L11.122,7 Z M10.0201321,4.09159434 C10.0194087,4.08904407 10.0186979,4.08651229 10.0179935,4.084 C10.0179935,4.084 10.0179957,4.08401936 10.0179935,4.08402904 L10.0201321,4.09159434 Z M10.0179935,4.08402904 C9.99398924,4.19202581 9.93399624,4.33600914 9.892,4.438 L9.532,5.344 L10.504,5.344 L10.144,4.438 C10.102977,4.33837272 10.0505058,4.19867672 10.0201321,4.09159434 L10.0179935,4.08402904 Z M15.544,7 L15.232,6.184 L13.654,6.184 L13.342,7 L12.346,7 L14.002,2.8 L14.878,2.8 L16.54,7 L15.544,7 Z M14.4421321,4.09159434 C14.4414087,4.08904407 14.4406979,4.08651229 14.4399935,4.084 C14.4399935,4.084 14.4399957,4.08401936 14.4399935,4.08402904 L14.4421321,4.09159434 Z M14.4399935,4.08402904 C14.4159892,4.19202581 14.3559962,4.33600914 14.314,4.438 L13.954,5.344 L14.926,5.344 L14.566,4.438 C14.524977,4.33837272 14.4725058,4.19867672 14.4421321,4.09159434 L14.4399935,4.08402904 Z" id="CAA" fill="#FFFFFF"></path>
                        </g>
                        <g id="record-cname" transform="translate(183.000000, 0.000000)">
                            <g id="Combined-Shape">
                                <use fill-opacity="0.200000003" fill="#31C7C3" fill-rule="evenodd" xlink:href="#path-7"></use>
                                <path stroke-opacity="0.4" stroke="#31C7C3" stroke-width="1" d="M26.7928932,0.5 L4,0.5 C2.06700338,0.5 0.5,2.06700338 0.5,4 L0.5,41 C0.5,42.9329966 2.06700338,44.5 4,44.5 L49,44.5 C50.9329966,44.5 52.5,42.9329966 52.5,41 L52.5,10 C52.5,8.06700338 50.9329966,6.5 49,6.5 L32.7928932,6.5 L26.7928932,0.5 Z"></path>
                            </g>
                            <g id="Combined-Shape">
                                <use fill-opacity="0.200000003" fill="#31C7C3" fill-rule="evenodd" xlink:href="#path-8"></use>
                                <rect stroke-opacity="0.4" stroke="#31C7C3" stroke-width="1" x="0.5" y="10.5" width="52" height="34" rx="4"></rect>
                            </g>
                            <path d="M6.07,7.06 C4.75,7.06 4.3,5.938 4.3,4.9 C4.3,3.946 4.762,2.74 6.07,2.74 C6.88,2.74 7.408,3.238 7.612,3.748 L6.796,4.114 C6.586,3.796 6.4,3.616 6.07,3.616 C5.446,3.616 5.248,4.324 5.248,4.9 C5.248,5.494 5.494,6.184 6.07,6.184 C6.376,6.184 6.592,5.962 6.784,5.644 L7.618,5.956 C7.318,6.604 6.844,7.06 6.07,7.06 Z M10.8099588,5.31371087 C10.7979863,5.22961507 10.792,5.06192436 10.792,4.996 L10.792,2.8 L11.704,2.8 L11.704,7 L10.906,7 L9.322,4.774 C9.28201064,4.72258511 9.19850702,4.56782385 9.1491725,4.47026185 C9.16,4.55807344 9.16,4.69602075 9.16,4.774 L9.16,7 L8.26,7 L8.26,2.8 L9.094,2.8 L10.636,5.002 C10.6764143,5.05973466 10.7668279,5.21191257 10.8056719,5.30350743 L10.8099588,5.31371087 Z M9.1491725,4.47026185 C9.146692,4.4653565 9.14429787,4.46059574 9.142,4.456 C9.14200479,4.45602714 9.14200958,4.45605428 9.14201436,4.45608143 L9.1491725,4.47026185 Z M15.46,7 L15.148,6.184 L13.57,6.184 L13.258,7 L12.262,7 L13.918,2.8 L14.794,2.8 L16.456,7 L15.46,7 Z M14.3581321,4.09159434 C14.3574087,4.08904407 14.3566979,4.08651229 14.3559935,4.084 C14.3559935,4.084 14.3559957,4.08401936 14.3559935,4.08402904 L14.3581321,4.09159434 Z M14.3559935,4.08402904 C14.3319892,4.19202581 14.2719962,4.33600914 14.23,4.438 L13.87,5.344 L14.842,5.344 L14.482,4.438 C14.440977,4.33837272 14.3885058,4.19867672 14.3581321,4.09159434 L14.3559935,4.08402904 Z M20.086,4.786 C20.0858985,4.78721747 20.0857988,4.78842464 20.0857008,4.78962164 L20.086,4.786 Z M20.0859965,4.78600837 C20.0559995,4.85800093 20.0499993,4.8700014 20.032,4.906 L19.012,7.072 L17.98,4.918 C17.962,4.876 17.956,4.858 17.932,4.786 L17.932,7 L17.02,7 L17.02,2.8 L17.95,2.8 L18.928,4.942 C18.97,5.038 19,5.122 19.03,5.206 C19.06,5.122 19.09,5.038 19.132,4.942 L20.14,2.8 L20.992,2.8 L20.992,7 L20.08,7 L20.08,4.918 C20.08,4.89440582 20.08,4.85921404 20.0857008,4.78962164 L20.0859965,4.78600837 Z M21.892,7 L21.892,2.8 L24.91,2.8 L24.91,3.664 L22.804,3.664 L22.804,4.402 L23.98,4.402 L23.98,5.266 L22.804,5.266 L22.804,6.13 L25.03,6.13 L25.03,7 L21.892,7 Z" id="CNAME" fill="#FFFFFF"></path>
                        </g>
                        <g id="record-loc" transform="translate(244.000000, 0.000000)">
                            <g id="Combined-Shape">
                                <use fill-opacity="0.200000003" fill="#31C7C3" fill-rule="evenodd" xlink:href="#path-9"></use>
                                <path stroke-opacity="0.4" stroke="#31C7C3" stroke-width="1" d="M16.7928932,0.5 L4,0.5 C2.06700338,0.5 0.5,2.06700338 0.5,4 L0.5,41 C0.5,42.9329966 2.06700338,44.5 4,44.5 L49,44.5 C50.9329966,44.5 52.5,42.9329966 52.5,41 L52.5,10 C52.5,8.06700338 50.9329966,6.5 49,6.5 L22.7928932,6.5 L16.7928932,0.5 Z"></path>
                            </g>
                            <g id="Combined-Shape">
                                <use fill-opacity="0.200000003" fill="#31C7C3" fill-rule="evenodd" xlink:href="#path-10"></use>
                                <rect stroke-opacity="0.4" stroke="#31C7C3" stroke-width="1" x="0.5" y="10.5" width="52" height="34" rx="4"></rect>
                            </g>
                            <path d="M4.45,7 L4.45,2.8 L5.362,2.8 L5.362,6.118 L7.378,6.118 L7.378,7 L4.45,7 Z M9.586,7.072 C8.224,7.072 7.72,5.938 7.72,4.9 C7.72,3.862 8.224,2.728 9.586,2.728 C10.942,2.728 11.446,3.862 11.446,4.9 C11.446,5.938 10.942,7.072 9.586,7.072 Z M9.586,6.19 C10.252,6.19 10.498,5.458 10.498,4.9 C10.498,4.306 10.276,3.604 9.586,3.604 C8.89,3.604 8.668,4.336 8.668,4.9 C8.668,5.482 8.896,6.19 9.586,6.19 Z M13.81,7.06 C12.49,7.06 12.04,5.938 12.04,4.9 C12.04,3.946 12.502,2.74 13.81,2.74 C14.62,2.74 15.148,3.238 15.352,3.748 L14.536,4.114 C14.326,3.796 14.14,3.616 13.81,3.616 C13.186,3.616 12.988,4.324 12.988,4.9 C12.988,5.494 13.234,6.184 13.81,6.184 C14.116,6.184 14.332,5.962 14.524,5.644 L15.358,5.956 C15.058,6.604 14.584,7.06 13.81,7.06 Z" id="LOC" fill="#FFFFFF"></path>
                        </g>
                        <g id="record-mx" transform="translate(305.000000, 0.000000)">
                            <g id="Combined-Shape">
                                <use fill-opacity="0.200000003" fill="#31C7C3" fill-rule="evenodd" xlink:href="#path-11"></use>
                                <path stroke-opacity="0.4" stroke="#31C7C3" stroke-width="1" d="M14.7928932,0.5 L4,0.5 C2.06700338,0.5 0.5,2.06700338 0.5,4 L0.5,41 C0.5,42.9329966 2.06700338,44.5 4,44.5 L49,44.5 C50.9329966,44.5 52.5,42.9329966 52.5,41 L52.5,10 C52.5,8.06700338 50.9329966,6.5 49,6.5 L20.7928932,6.5 L14.7928932,0.5 Z"></path>
                            </g>
                            <g id="Combined-Shape">
                                <use fill-opacity="0.200000003" fill="#31C7C3" fill-rule="evenodd" xlink:href="#path-12"></use>
                                <rect stroke-opacity="0.4" stroke="#31C7C3" stroke-width="1" x="0.5" y="10.5" width="52" height="34" rx="4"></rect>
                            </g>
                            <path d="M7.516,4.786 C7.51589854,4.78721747 7.5157988,4.78842464 7.51570075,4.78962164 L7.516,4.786 Z M7.51599651,4.78600837 C7.48599953,4.85800093 7.4799993,4.8700014 7.462,4.906 L6.442,7.072 L5.41,4.918 C5.392,4.876 5.386,4.858 5.362,4.786 L5.362,7 L4.45,7 L4.45,2.8 L5.38,2.8 L6.358,4.942 C6.4,5.038 6.43,5.122 6.46,5.206 C6.49,5.122 6.52,5.038 6.562,4.942 L7.57,2.8 L8.422,2.8 L8.422,7 L7.51,7 L7.51,4.918 C7.51,4.89440582 7.51,4.85921404 7.51570075,4.78962164 L7.51599651,4.78600837 Z M11.884,7 L11.02,5.674 L10.156,7 L9.082,7 L10.486,4.84 L9.16,2.8 L10.234,2.8 L11.02,4.006 L11.8,2.8 L12.88,2.8 L11.56,4.84 L12.958,7 L11.884,7 Z" id="MX" fill="#FFFFFF"></path>
                        </g>
                        <g id="record-ns" transform="translate(366.000000, 0.000000)">
                            <g id="Combined-Shape">
                                <use fill-opacity="0.200000003" fill="#31C7C3" fill-rule="evenodd" xlink:href="#path-13"></use>
                                <path stroke-opacity="0.4" stroke="#31C7C3" stroke-width="1" d="M13.7928932,0.5 L4,0.5 C2.06700338,0.5 0.5,2.06700338 0.5,4 L0.5,41 C0.5,42.9329966 2.06700338,44.5 4,44.5 L49,44.5 C50.9329966,44.5 52.5,42.9329966 52.5,41 L52.5,10 C52.5,8.06700338 50.9329966,6.5 49,6.5 L19.7928932,6.5 L13.7928932,0.5 Z"></path>
                            </g>
                            <g id="Combined-Shape">
                                <use fill-opacity="0.200000003" fill="#31C7C3" fill-rule="evenodd" xlink:href="#path-14"></use>
                                <rect stroke-opacity="0.4" stroke="#31C7C3" stroke-width="1" x="0.5" y="10.5" width="52" height="34" rx="4"></rect>
                            </g>
                            <path d="M6.99995877,5.31371087 C6.98798626,5.22961507 6.982,5.06192436 6.982,4.996 L6.982,2.8 L7.894,2.8 L7.894,7 L7.096,7 L5.512,4.774 C5.47201064,4.72258511 5.38850702,4.56782385 5.3391725,4.47026185 C5.35,4.55807344 5.35,4.69602075 5.35,4.774 L5.35,7 L4.45,7 L4.45,2.8 L5.284,2.8 L6.826,5.002 C6.86641426,5.05973466 6.95682789,5.21191257 6.99567194,5.30350743 L6.99995877,5.31371087 Z M5.3391725,4.47026185 C5.336692,4.4653565 5.33429787,4.46059574 5.332,4.456 C5.33200479,4.45602714 5.33200958,4.45605428 5.33201436,4.45608143 L5.3391725,4.47026185 Z M10.234,7.072 C9.418,7.072 8.8,6.61 8.548,5.842 L9.364,5.536 C9.55,5.932 9.874,6.208 10.258,6.208 C10.636,6.208 10.888,6.064 10.888,5.776 C10.888,5.482 10.528,5.368 10.09,5.23 C9.46,5.026 8.716,4.792 8.716,3.916 C8.716,3.268 9.25,2.728 10.186,2.728 C10.96,2.728 11.482,3.184 11.644,3.778 L10.828,4.042 C10.714,3.784 10.516,3.592 10.138,3.592 C9.808,3.592 9.628,3.712 9.628,3.934 C9.628,4.15 9.952,4.252 10.342,4.384 C10.978,4.588 11.8,4.852 11.8,5.782 C11.8,6.598 11.11,7.072 10.234,7.072 Z" id="NS" fill="#FFFFFF"></path>
                        </g>
                        <g id="record-spf" transform="translate(427.000000, 0.000000)">
                            <g id="Combined-Shape">
                                <use fill-opacity="0.200000003" fill="#31C7C3" fill-rule="evenodd" xlink:href="#path-15"></use>
                                <path stroke-opacity="0.4" stroke="#31C7C3" stroke-width="1" d="M16.7928932,0.5 L4,0.5 C2.06700338,0.5 0.5,2.06700338 0.5,4 L0.5,41 C0.5,42.9329966 2.06700338,44.5 4,44.5 L49,44.5 C50.9329966,44.5 52.5,42.9329966 52.5,41 L52.5,10 C52.5,8.06700338 50.9329966,6.5 49,6.5 L22.7928932,6.5 L16.7928932,0.5 Z"></path>
                            </g>
                            <g id="Combined-Shape">
                                <use fill-opacity="0.200000003" fill="#31C7C3" fill-rule="evenodd" xlink:href="#path-16"></use>
                                <rect stroke-opacity="0.4" stroke="#31C7C3" stroke-width="1" x="0.5" y="10.5" width="52" height="34" rx="4"></rect>
                            </g>
                            <path d="M5.896,7.072 C5.08,7.072 4.462,6.61 4.21,5.842 L5.026,5.536 C5.212,5.932 5.536,6.208 5.92,6.208 C6.298,6.208 6.55,6.064 6.55,5.776 C6.55,5.482 6.19,5.368 5.752,5.23 C5.122,5.026 4.378,4.792 4.378,3.916 C4.378,3.268 4.912,2.728 5.848,2.728 C6.622,2.728 7.144,3.184 7.306,3.778 L6.49,4.042 C6.376,3.784 6.178,3.592 5.8,3.592 C5.47,3.592 5.29,3.712 5.29,3.934 C5.29,4.15 5.614,4.252 6.004,4.384 C6.64,4.588 7.462,4.852 7.462,5.782 C7.462,6.598 6.772,7.072 5.896,7.072 Z M8.176,7 L8.176,2.8 L10.036,2.8 C11.116,2.8 11.5,3.478 11.5,4.15 C11.5,4.774 11.08,5.494 10.036,5.494 L9.088,5.494 L9.088,7 L8.176,7 Z M10.072,4.636 C10.42,4.636 10.552,4.378 10.552,4.15 C10.552,3.94 10.438,3.664 10.072,3.664 L9.088,3.664 L9.088,4.636 L10.072,4.636 Z M12.034,7 L12.034,2.8 L14.962,2.8 L14.962,3.664 L12.946,3.664 L12.946,4.402 L14.212,4.402 L14.212,5.266 L12.946,5.266 L12.946,7 L12.034,7 Z" id="SPF" fill="#FFFFFF"></path>
                        </g>
                        <g id="record-srv" transform="translate(488.000000, 0.000000)">
                            <g id="Combined-Shape">
                                <use fill-opacity="0.200000003" fill="#31C7C3" fill-rule="evenodd" xlink:href="#path-17"></use>
                                <path stroke-opacity="0.4" stroke="#31C7C3" stroke-width="1" d="M17.7928932,0.5 L4,0.5 C2.06700338,0.5 0.5,2.06700338 0.5,4 L0.5,41 C0.5,42.9329966 2.06700338,44.5 4,44.5 L49,44.5 C50.9329966,44.5 52.5,42.9329966 52.5,41 L52.5,10 C52.5,8.06700338 50.9329966,6.5 49,6.5 L23.7928932,6.5 L17.7928932,0.5 Z"></path>
                            </g>
                            <g id="Combined-Shape">
                                <use fill-opacity="0.200000003" fill="#31C7C3" fill-rule="evenodd" xlink:href="#path-18"></use>
                                <rect stroke-opacity="0.4" stroke="#31C7C3" stroke-width="1" x="0.5" y="10.5" width="52" height="34" rx="4"></rect>
                            </g>
                            <path d="M5.896,7.072 C5.08,7.072 4.462,6.61 4.21,5.842 L5.026,5.536 C5.212,5.932 5.536,6.208 5.92,6.208 C6.298,6.208 6.55,6.064 6.55,5.776 C6.55,5.482 6.19,5.368 5.752,5.23 C5.122,5.026 4.378,4.792 4.378,3.916 C4.378,3.268 4.912,2.728 5.848,2.728 C6.622,2.728 7.144,3.184 7.306,3.778 L6.49,4.042 C6.376,3.784 6.178,3.592 5.8,3.592 C5.47,3.592 5.29,3.712 5.29,3.934 C5.29,4.15 5.614,4.252 6.004,4.384 C6.64,4.588 7.462,4.852 7.462,5.782 C7.462,6.598 6.772,7.072 5.896,7.072 Z M8.176,7 L8.176,2.8 L10.222,2.8 C11.296,2.8 11.656,3.43 11.656,4.156 C11.656,4.618 11.386,5.176 10.894,5.38 L11.68,7 L10.66,7 L9.898,5.518 L9.088,5.518 L9.088,7 L8.176,7 Z M9.088,4.654 L10.234,4.654 C10.594,4.654 10.708,4.42 10.708,4.156 C10.708,3.91 10.6,3.664 10.234,3.664 L9.088,3.664 L9.088,4.654 Z M13.606,7 L12.094,2.8 L13.084,2.8 L13.99,5.446 C14.02,5.518 14.032,5.59 14.044,5.626 C14.05,5.59 14.068,5.53 14.098,5.446 L15.004,2.8 L15.982,2.8 L14.476,7 L13.606,7 Z" id="SRV" fill="#FFFFFF"></path>
                        </g>
                        <g id="record-txt" transform="translate(549.000000, 0.000000)">
                            <g id="Combined-Shape">
                                <use fill-opacity="0.200000003" fill="#31C7C3" fill-rule="evenodd" xlink:href="#path-19"></use>
                                <path stroke-opacity="0.4" stroke="#31C7C3" stroke-width="1" d="M16.7928932,0.5 L4,0.5 C2.06700338,0.5 0.5,2.06700338 0.5,4 L0.5,41 C0.5,42.9329966 2.06700338,44.5 4,44.5 L49,44.5 C50.9329966,44.5 52.5,42.9329966 52.5,41 L52.5,10 C52.5,8.06700338 50.9329966,6.5 49,6.5 L22.7928932,6.5 L16.7928932,0.5 Z"></path>
                            </g>
                            <g id="Combined-Shape">
                                <use fill-opacity="0.200000003" fill="#31C7C3" fill-rule="evenodd" xlink:href="#path-20"></use>
                                <rect stroke-opacity="0.4" stroke="#31C7C3" stroke-width="1" x="0.5" y="10.5" width="52" height="34" rx="4"></rect>
                            </g>
                            <path d="M6.298,3.676 L6.298,7 L5.386,7 L5.386,3.676 L4.18,3.676 L4.18,2.8 L7.504,2.8 L7.504,3.676 L6.298,3.676 Z M10.69,7 L9.826,5.674 L8.962,7 L7.888,7 L9.292,4.84 L7.966,2.8 L9.04,2.8 L9.826,4.006 L10.606,2.8 L11.686,2.8 L10.366,4.84 L11.764,7 L10.69,7 Z M14.272,3.676 L14.272,7 L13.36,7 L13.36,3.676 L12.154,3.676 L12.154,2.8 L15.478,2.8 L15.478,3.676 L14.272,3.676 Z" id="TXT" fill="#FFFFFF"></path>
                        </g>
                    </g>
                </g>
            </g>
        </g>
    </g>
</svg>