<?xml version="1.0" encoding="UTF-8"?>
<svg width="127px" height="116px" viewBox="0 0 127 116" version="1.1" xmlns="http://www.w3.org/2000/svg" xmlns:xlink="http://www.w3.org/1999/xlink">
    <!-- Generator: Sketch 48.2 (47327) - http://www.bohemiancoding.com/sketch -->
    <title>scanner</title>
    <desc>Created with Sketch.</desc>
    <defs>
        <rect id="path-1" x="0" y="0" width="111" height="100" rx="8"></rect>
        <filter x="-10.8%" y="-12.0%" width="121.6%" height="124.0%" filterUnits="objectBoundingBox" id="filter-2">
            <feOffset dx="0" dy="0" in="SourceAlpha" result="shadowOffsetOuter1"></feOffset>
            <feGaussianBlur stdDeviation="4" in="shadowOffsetOuter1" result="shadowBlurOuter1"></feGaussianBlur>
            <feComposite in="shadowBlurOuter1" in2="SourceAlpha" operator="out" result="shadowBlurOuter1"></feComposite>
            <feColorMatrix values="0 0 0 0 0   0 0 0 0 0   0 0 0 0 0  0 0 0 0.05 0" type="matrix" in="shadowBlurOuter1"></feColorMatrix>
        </filter>
        <linearGradient x1="50%" y1="0%" x2="50%" y2="100%" id="linearGradient-3">
            <stop stop-color="#2A3133" offset="0%"></stop>
            <stop stop-color="#222729" offset="100%"></stop>
        </linearGradient>
        <rect id="path-4" x="2" y="2" width="107" height="96" rx="6"></rect>
        <filter x="-11.2%" y="-12.5%" width="122.4%" height="125.0%" filterUnits="objectBoundingBox" id="filter-5">
            <feOffset dx="0" dy="0" in="SourceAlpha" result="shadowOffsetOuter1"></feOffset>
            <feGaussianBlur stdDeviation="4" in="shadowOffsetOuter1" result="shadowBlurOuter1"></feGaussianBlur>
            <feComposite in="shadowBlurOuter1" in2="SourceAlpha" operator="out" result="shadowBlurOuter1"></feComposite>
            <feColorMatrix values="0 0 0 0 0   0 0 0 0 0   0 0 0 0 0  0 0 0 0.05 0" type="matrix" in="shadowBlurOuter1"></feColorMatrix>
        </filter>
        <filter x="-7.9%" y="-8.9%" width="115.9%" height="117.7%" filterUnits="objectBoundingBox" id="filter-6">
            <feOffset dx="0" dy="1" in="SourceAlpha" result="shadowOffsetInner1"></feOffset>
            <feComposite in="shadowOffsetInner1" in2="SourceAlpha" operator="arithmetic" k2="-1" k3="1" result="shadowInnerInner1"></feComposite>
            <feColorMatrix values="0 0 0 0 1   0 0 0 0 1   0 0 0 0 1  0 0 0 0.1 0" type="matrix" in="shadowInnerInner1"></feColorMatrix>
        </filter>
        <rect id="path-7" x="0" y="0" width="93" height="68" rx="2"></rect>
        <filter x="-12.9%" y="-17.6%" width="125.8%" height="135.3%" filterUnits="objectBoundingBox" id="filter-9">
            <feOffset dx="0" dy="0" in="SourceAlpha" result="shadowOffsetOuter1"></feOffset>
            <feGaussianBlur stdDeviation="4" in="shadowOffsetOuter1" result="shadowBlurOuter1"></feGaussianBlur>
            <feComposite in="shadowBlurOuter1" in2="SourceAlpha" operator="out" result="shadowBlurOuter1"></feComposite>
            <feColorMatrix values="0 0 0 0 0   0 0 0 0 0   0 0 0 0 0  0 0 0 0.05 0" type="matrix" in="shadowBlurOuter1"></feColorMatrix>
        </filter>
        <rect id="path-10" x="0" y="0" width="23" height="17" rx="2"></rect>
        <filter x="-2.2%" y="-2.9%" width="104.3%" height="105.9%" filterUnits="objectBoundingBox" id="filter-11">
            <feOffset dx="0" dy="-1" in="SourceAlpha" result="shadowOffsetInner1"></feOffset>
            <feComposite in="shadowOffsetInner1" in2="SourceAlpha" operator="arithmetic" k2="-1" k3="1" result="shadowInnerInner1"></feComposite>
            <feColorMatrix values="0 0 0 0 1   0 0 0 0 1   0 0 0 0 1  0 0 0 0.1 0" type="matrix" in="shadowInnerInner1" result="shadowMatrixInner1"></feColorMatrix>
            <feOffset dx="0" dy="1" in="SourceAlpha" result="shadowOffsetInner2"></feOffset>
            <feComposite in="shadowOffsetInner2" in2="SourceAlpha" operator="arithmetic" k2="-1" k3="1" result="shadowInnerInner2"></feComposite>
            <feColorMatrix values="0 0 0 0 0   0 0 0 0 0   0 0 0 0 0  0 0 0 0.4 0" type="matrix" in="shadowInnerInner2" result="shadowMatrixInner2"></feColorMatrix>
            <feMerge>
                <feMergeNode in="shadowMatrixInner1"></feMergeNode>
                <feMergeNode in="shadowMatrixInner2"></feMergeNode>
            </feMerge>
        </filter>
        <path d="M6.5,9 C6.22385763,9 6,8.77614237 6,8.5 C6,8.22385763 6.22385763,8 6.5,8 C6.77614237,8 7,8.22385763 7,8.5 C7,8.77614237 6.77614237,9 6.5,9 Z M6.5,11 C6.22385763,11 6,10.7761424 6,10.5 C6,10.2238576 6.22385763,10 6.5,10 C6.77614237,10 7,10.2238576 7,10.5 C7,10.7761424 6.77614237,11 6.5,11 Z M8.5,9 C8.22385763,9 8,8.77614237 8,8.5 C8,8.22385763 8.22385763,8 8.5,8 C8.77614237,8 9,8.22385763 9,8.5 C9,8.77614237 8.77614237,9 8.5,9 Z M8.5,11 C8.22385763,11 8,10.7761424 8,10.5 C8,10.2238576 8.22385763,10 8.5,10 C8.77614237,10 9,10.2238576 9,10.5 C9,10.7761424 8.77614237,11 8.5,11 Z M8.5,13 C8.22385763,13 8,12.7761424 8,12.5 C8,12.2238576 8.22385763,12 8.5,12 C8.77614237,12 9,12.2238576 9,12.5 C9,12.7761424 8.77614237,13 8.5,13 Z M10.5,11 C10.2238576,11 10,10.7761424 10,10.5 C10,10.2238576 10.2238576,10 10.5,10 C10.7761424,10 11,10.2238576 11,10.5 C11,10.7761424 10.7761424,11 10.5,11 Z M10.5,13 C10.2238576,13 10,12.7761424 10,12.5 C10,12.2238576 10.2238576,12 10.5,12 C10.7761424,12 11,12.2238576 11,12.5 C11,12.7761424 10.7761424,13 10.5,13 Z M12.5,9 C12.2238576,9 12,8.77614237 12,8.5 C12,8.22385763 12.2238576,8 12.5,8 C12.7761424,8 13,8.22385763 13,8.5 C13,8.77614237 12.7761424,9 12.5,9 Z M12.5,11 C12.2238576,11 12,10.7761424 12,10.5 C12,10.2238576 12.2238576,10 12.5,10 C12.7761424,10 13,10.2238576 13,10.5 C13,10.7761424 12.7761424,11 12.5,11 Z M14.5,7 C14.2238576,7 14,6.77614237 14,6.5 C14,6.22385763 14.2238576,6 14.5,6 C14.7761424,6 15,6.22385763 15,6.5 C15,6.77614237 14.7761424,7 14.5,7 Z M14.5,9 C14.2238576,9 14,8.77614237 14,8.5 C14,8.22385763 14.2238576,8 14.5,8 C14.7761424,8 15,8.22385763 15,8.5 C15,8.77614237 14.7761424,9 14.5,9 Z M16.5,5 C16.2238576,5 16,4.77614237 16,4.5 C16,4.22385763 16.2238576,4 16.5,4 C16.7761424,4 17,4.22385763 17,4.5 C17,4.77614237 16.7761424,5 16.5,5 Z M16.5,7 C16.2238576,7 16,6.77614237 16,6.5 C16,6.22385763 16.2238576,6 16.5,6 C16.7761424,6 17,6.22385763 17,6.5 C17,6.77614237 16.7761424,7 16.5,7 Z M18.5,5 C18.2238576,5 18,4.77614237 18,4.5 C18,4.22385763 18.2238576,4 18.5,4 C18.7761424,4 19,4.22385763 19,4.5 C19,4.77614237 18.7761424,5 18.5,5 Z" id="path-12"></path>
        <filter x="-34.6%" y="-50.0%" width="169.2%" height="200.0%" filterUnits="objectBoundingBox" id="filter-13">
            <feMorphology radius="0.5" operator="dilate" in="SourceAlpha" result="shadowSpreadOuter1"></feMorphology>
            <feOffset dx="0" dy="0" in="shadowSpreadOuter1" result="shadowOffsetOuter1"></feOffset>
            <feGaussianBlur stdDeviation="1" in="shadowOffsetOuter1" result="shadowBlurOuter1"></feGaussianBlur>
            <feColorMatrix values="0 0 0 0 0   0 0 0 0 1   0 0 0 0 0.97254902  0 0 0 0.4 0" type="matrix" in="shadowBlurOuter1"></feColorMatrix>
        </filter>
    </defs>
    <g id="Onboarding-(Scanning-DNS-Records---Continue)---UI---Desktop" stroke="none" stroke-width="1" fill="none" fill-rule="evenodd" transform="translate(-657.000000, -112.000000)">
        <g id="illustration-scanning-dns-records" transform="translate(613.000000, 120.000000)">
            <g id="scanner" transform="translate(52.000000, 0.000000)">
                <g id="outer-shape">
                    <use fill="black" fill-opacity="1" filter="url(#filter-2)" xlink:href="#path-1"></use>
                    <use fill="#1F1F1F" fill-rule="evenodd" xlink:href="#path-1"></use>
                    <rect stroke-opacity="0.08" stroke="#102452" stroke-width="1" x="0.5" y="0.5" width="110" height="99" rx="8"></rect>
                </g>
                <g id="inner-shape">
                    <use fill="black" fill-opacity="1" filter="url(#filter-5)" xlink:href="#path-4"></use>
                    <use fill="url(#linearGradient-3)" fill-rule="evenodd" xlink:href="#path-4"></use>
                    <use fill="black" fill-opacity="1" filter="url(#filter-6)" xlink:href="#path-4"></use>
                    <rect stroke-opacity="0.08" stroke="#102452" stroke-width="1" x="2.5" y="2.5" width="106" height="95" rx="6"></rect>
                </g>
                <g id="screen" transform="translate(9.000000, 9.000000)">
                    <mask id="mask-8" fill="white">
                        <use xlink:href="#path-7"></use>
                    </mask>
                    <g id="background">
                        <use fill="black" fill-opacity="1" filter="url(#filter-9)" xlink:href="#path-7"></use>
                        <use fill="#2E4B4D" fill-rule="evenodd" xlink:href="#path-7"></use>
                        <rect stroke-opacity="0.08" stroke="#102452" stroke-width="1" x="0.5" y="0.5" width="92" height="67" rx="2"></rect>
                    </g>
                    <g id="lines" mask="url(#mask-8)" opacity="0.0799999982" stroke-dasharray="1,1">
                        <g transform="translate(-1.000000, 1.000000)">
                            <g id="horizontal" transform="translate(0.000000, 1.000000)">
                                <path d="M0,1.5 L95,1.5" id="Path-4" stroke="#FFFFFF"></path>
                                <path d="M0,5.5 L95,5.5" id="Path-4" stroke="#FFFFFF"></path>
                                <path d="M0,9.5 L95,9.5" id="Path-4" stroke="#FFFFFF"></path>
                                <path d="M0,13.5 L95,13.5" id="Path-4" stroke="#FFFFFF"></path>
                                <path d="M0,17.5 L95,17.5" id="Path-4" stroke="#FFFFFF"></path>
                                <path d="M0,21.5 L95,21.5" id="Path-4" stroke="#FFFFFF"></path>
                                <path d="M0,25.5 L95,25.5" id="Path-4" stroke="#FFFFFF"></path>
                                <path d="M0,29.5 L95,29.5" id="Path-4" stroke="#FFFFFF"></path>
                                <path d="M0,33.5 L95,33.5" id="Path-4" stroke="#FFFFFF"></path>
                                <path d="M0,37.5 L95,37.5" id="Path-4" stroke="#FFFFFF"></path>
                                <path d="M0,41.5 L95,41.5" id="Path-4" stroke="#FFFFFF"></path>
                                <path d="M0,45.5 L95,45.5" id="Path-4" stroke="#FFFFFF"></path>
                                <path d="M0,49.5 L95,49.5" id="Path-4" stroke="#FFFFFF"></path>
                                <path d="M0,53.5 L95,53.5" id="Path-4" stroke="#FFFFFF"></path>
                                <path d="M0,57.5 L95,57.5" id="Path-4" stroke="#FFFFFF"></path>
                                <path d="M0,61.5 L95,61.5" id="Path-4" stroke="#FFFFFF"></path>
                                <path d="M0,65.5 L95,65.5" id="Path-4" stroke="#FFFFFF"></path>
                            </g>
                            <g id="vertical" transform="translate(1.000000, 0.000000)">
                                <path d="M7.5,0 L7.5,67" id="Path-5" stroke="#FFFFFF"></path>
                                <path d="M1.5,0 L1.5,67" id="Path-5" stroke="#FFFFFF"></path>
                                <path d="M13.5,0 L13.5,67" id="Path-5" stroke="#FFFFFF"></path>
                                <path d="M19.5,0 L19.5,67" id="Path-5" stroke="#FFFFFF"></path>
                                <path d="M25.5,0 L25.5,67" id="Path-5" stroke="#FFFFFF"></path>
                                <path d="M31.5,0 L31.5,67" id="Path-5" stroke="#FFFFFF"></path>
                                <path d="M43.5,0 L43.5,67" id="Path-5" stroke="#FFFFFF"></path>
                                <path d="M49.5,0 L49.5,67" id="Path-5" stroke="#FFFFFF"></path>
                                <path d="M37.5,0 L37.5,67" id="Path-5" stroke="#FFFFFF"></path>
                                <path d="M55.5,0 L55.5,67" id="Path-5" stroke="#FFFFFF"></path>
                                <path d="M61.5,0 L61.5,67" id="Path-5" stroke="#FFFFFF"></path>
                                <path d="M73.5,0 L73.5,67" id="Path-5" stroke="#FFFFFF"></path>
                                <path d="M67.5,0 L67.5,67" id="Path-5" stroke="#FFFFFF"></path>
                                <path d="M79.5,0 L79.5,67" id="Path-5" stroke="#FFFFFF"></path>
                                <path d="M85.5,0 L85.5,67" id="Path-5" stroke="#FFFFFF"></path>
                                <path d="M91.5,0 L91.5,67" id="Path-5" stroke="#FFFFFF"></path>
                            </g>
                        </g>
                    </g>
                </g>
                <g id="state-screen" transform="translate(44.000000, 80.000000)">
                    <g id="background">
                        <use fill="#15181A" fill-rule="evenodd" xlink:href="#path-10"></use>
                        <use fill="black" fill-opacity="1" filter="url(#filter-11)" xlink:href="#path-10"></use>
                        <rect stroke-opacity="0.08" stroke="#102452" stroke-width="1" x="0.5" y="0.5" width="22" height="16" rx="2"></rect>
                    </g>
                    <path d="M2.5,5 C2.22385763,5 2,4.77614237 2,4.5 C2,4.22385763 2.22385763,4 2.5,4 C2.77614237,4 3,4.22385763 3,4.5 C3,4.77614237 2.77614237,5 2.5,5 Z M2.5,7 C2.22385763,7 2,6.77614237 2,6.5 C2,6.22385763 2.22385763,6 2.5,6 C2.77614237,6 3,6.22385763 3,6.5 C3,6.77614237 2.77614237,7 2.5,7 Z M2.5,9 C2.22385763,9 2,8.77614237 2,8.5 C2,8.22385763 2.22385763,8 2.5,8 C2.77614237,8 3,8.22385763 3,8.5 C3,8.77614237 2.77614237,9 2.5,9 Z M2.5,11 C2.22385763,11 2,10.7761424 2,10.5 C2,10.2238576 2.22385763,10 2.5,10 C2.77614237,10 3,10.2238576 3,10.5 C3,10.7761424 2.77614237,11 2.5,11 Z M2.5,13 C2.22385763,13 2,12.7761424 2,12.5 C2,12.2238576 2.22385763,12 2.5,12 C2.77614237,12 3,12.2238576 3,12.5 C3,12.7761424 2.77614237,13 2.5,13 Z M4.5,5 C4.22385763,5 4,4.77614237 4,4.5 C4,4.22385763 4.22385763,4 4.5,4 C4.77614237,4 5,4.22385763 5,4.5 C5,4.77614237 4.77614237,5 4.5,5 Z M4.5,7 C4.22385763,7 4,6.77614237 4,6.5 C4,6.22385763 4.22385763,6 4.5,6 C4.77614237,6 5,6.22385763 5,6.5 C5,6.77614237 4.77614237,7 4.5,7 Z M4.5,9 C4.22385763,9 4,8.77614237 4,8.5 C4,8.22385763 4.22385763,8 4.5,8 C4.77614237,8 5,8.22385763 5,8.5 C5,8.77614237 4.77614237,9 4.5,9 Z M4.5,11 C4.22385763,11 4,10.7761424 4,10.5 C4,10.2238576 4.22385763,10 4.5,10 C4.77614237,10 5,10.2238576 5,10.5 C5,10.7761424 4.77614237,11 4.5,11 Z M4.5,13 C4.22385763,13 4,12.7761424 4,12.5 C4,12.2238576 4.22385763,12 4.5,12 C4.77614237,12 5,12.2238576 5,12.5 C5,12.7761424 4.77614237,13 4.5,13 Z M6.5,5 C6.22385763,5 6,4.77614237 6,4.5 C6,4.22385763 6.22385763,4 6.5,4 C6.77614237,4 7,4.22385763 7,4.5 C7,4.77614237 6.77614237,5 6.5,5 Z M6.5,7 C6.22385763,7 6,6.77614237 6,6.5 C6,6.22385763 6.22385763,6 6.5,6 C6.77614237,6 7,6.22385763 7,6.5 C7,6.77614237 6.77614237,7 6.5,7 Z M6.5,13 C6.22385763,13 6,12.7761424 6,12.5 C6,12.2238576 6.22385763,12 6.5,12 C6.77614237,12 7,12.2238576 7,12.5 C7,12.7761424 6.77614237,13 6.5,13 Z M8.5,5 C8.22385763,5 8,4.77614237 8,4.5 C8,4.22385763 8.22385763,4 8.5,4 C8.77614237,4 9,4.22385763 9,4.5 C9,4.77614237 8.77614237,5 8.5,5 Z M8.5,7 C8.22385763,7 8,6.77614237 8,6.5 C8,6.22385763 8.22385763,6 8.5,6 C8.77614237,6 9,6.22385763 9,6.5 C9,6.77614237 8.77614237,7 8.5,7 Z M10.5,5 C10.2238576,5 10,4.77614237 10,4.5 C10,4.22385763 10.2238576,4 10.5,4 C10.7761424,4 11,4.22385763 11,4.5 C11,4.77614237 10.7761424,5 10.5,5 Z M10.5,7 C10.2238576,7 10,6.77614237 10,6.5 C10,6.22385763 10.2238576,6 10.5,6 C10.7761424,6 11,6.22385763 11,6.5 C11,6.77614237 10.7761424,7 10.5,7 Z M10.5,9 C10.2238576,9 10,8.77614237 10,8.5 C10,8.22385763 10.2238576,8 10.5,8 C10.7761424,8 11,8.22385763 11,8.5 C11,8.77614237 10.7761424,9 10.5,9 Z M12.5,5 C12.2238576,5 12,4.77614237 12,4.5 C12,4.22385763 12.2238576,4 12.5,4 C12.7761424,4 13,4.22385763 13,4.5 C13,4.77614237 12.7761424,5 12.5,5 Z M12.5,7 C12.2238576,7 12,6.77614237 12,6.5 C12,6.22385763 12.2238576,6 12.5,6 C12.7761424,6 13,6.22385763 13,6.5 C13,6.77614237 12.7761424,7 12.5,7 Z M12.5,13 C12.2238576,13 12,12.7761424 12,12.5 C12,12.2238576 12.2238576,12 12.5,12 C12.7761424,12 13,12.2238576 13,12.5 C13,12.7761424 12.7761424,13 12.5,13 Z M14.5,5 C14.2238576,5 14,4.77614237 14,4.5 C14,4.22385763 14.2238576,4 14.5,4 C14.7761424,4 15,4.22385763 15,4.5 C15,4.77614237 14.7761424,5 14.5,5 Z M14.5,11 C14.2238576,11 14,10.7761424 14,10.5 C14,10.2238576 14.2238576,10 14.5,10 C14.7761424,10 15,10.2238576 15,10.5 C15,10.7761424 14.7761424,11 14.5,11 Z M14.5,13 C14.2238576,13 14,12.7761424 14,12.5 C14,12.2238576 14.2238576,12 14.5,12 C14.7761424,12 15,12.2238576 15,12.5 C15,12.7761424 14.7761424,13 14.5,13 Z M16.5,9 C16.2238576,9 16,8.77614237 16,8.5 C16,8.22385763 16.2238576,8 16.5,8 C16.7761424,8 17,8.22385763 17,8.5 C17,8.77614237 16.7761424,9 16.5,9 Z M16.5,11 C16.2238576,11 16,10.7761424 16,10.5 C16,10.2238576 16.2238576,10 16.5,10 C16.7761424,10 17,10.2238576 17,10.5 C17,10.7761424 16.7761424,11 16.5,11 Z M16.5,13 C16.2238576,13 16,12.7761424 16,12.5 C16,12.2238576 16.2238576,12 16.5,12 C16.7761424,12 17,12.2238576 17,12.5 C17,12.7761424 16.7761424,13 16.5,13 Z M18.5,7 C18.2238576,7 18,6.77614237 18,6.5 C18,6.22385763 18.2238576,6 18.5,6 C18.7761424,6 19,6.22385763 19,6.5 C19,6.77614237 18.7761424,7 18.5,7 Z M18.5,9 C18.2238576,9 18,8.77614237 18,8.5 C18,8.22385763 18.2238576,8 18.5,8 C18.7761424,8 19,8.22385763 19,8.5 C19,8.77614237 18.7761424,9 18.5,9 Z M18.5,11 C18.2238576,11 18,10.7761424 18,10.5 C18,10.2238576 18.2238576,10 18.5,10 C18.7761424,10 19,10.2238576 19,10.5 C19,10.7761424 18.7761424,11 18.5,11 Z M18.5,13 C18.2238576,13 18,12.7761424 18,12.5 C18,12.2238576 18.2238576,12 18.5,12 C18.7761424,12 19,12.2238576 19,12.5 C19,12.7761424 18.7761424,13 18.5,13 Z M20.5,5 C20.2238576,5 20,4.77614237 20,4.5 C20,4.22385763 20.2238576,4 20.5,4 C20.7761424,4 21,4.22385763 21,4.5 C21,4.77614237 20.7761424,5 20.5,5 Z M20.5,7 C20.2238576,7 20,6.77614237 20,6.5 C20,6.22385763 20.2238576,6 20.5,6 C20.7761424,6 21,6.22385763 21,6.5 C21,6.77614237 20.7761424,7 20.5,7 Z M20.5,9 C20.2238576,9 20,8.77614237 20,8.5 C20,8.22385763 20.2238576,8 20.5,8 C20.7761424,8 21,8.22385763 21,8.5 C21,8.77614237 20.7761424,9 20.5,9 Z M20.5,11 C20.2238576,11 20,10.7761424 20,10.5 C20,10.2238576 20.2238576,10 20.5,10 C20.7761424,10 21,10.2238576 21,10.5 C21,10.7761424 20.7761424,11 20.5,11 Z M20.5,13 C20.2238576,13 20,12.7761424 20,12.5 C20,12.2238576 20.2238576,12 20.5,12 C20.7761424,12 21,12.2238576 21,12.5 C21,12.7761424 20.7761424,13 20.5,13 Z M2.5,3 C2.22385763,3 2,2.77614237 2,2.5 C2,2.22385763 2.22385763,2 2.5,2 C2.77614237,2 3,2.22385763 3,2.5 C3,2.77614237 2.77614237,3 2.5,3 Z M4.5,3 C4.22385763,3 4,2.77614237 4,2.5 C4,2.22385763 4.22385763,2 4.5,2 C4.77614237,2 5,2.22385763 5,2.5 C5,2.77614237 4.77614237,3 4.5,3 Z M6.5,3 C6.22385763,3 6,2.77614237 6,2.5 C6,2.22385763 6.22385763,2 6.5,2 C6.77614237,2 7,2.22385763 7,2.5 C7,2.77614237 6.77614237,3 6.5,3 Z M8.5,3 C8.22385763,3 8,2.77614237 8,2.5 C8,2.22385763 8.22385763,2 8.5,2 C8.77614237,2 9,2.22385763 9,2.5 C9,2.77614237 8.77614237,3 8.5,3 Z M10.5,3 C10.2238576,3 10,2.77614237 10,2.5 C10,2.22385763 10.2238576,2 10.5,2 C10.7761424,2 11,2.22385763 11,2.5 C11,2.77614237 10.7761424,3 10.5,3 Z M12.5,3 C12.2238576,3 12,2.77614237 12,2.5 C12,2.22385763 12.2238576,2 12.5,2 C12.7761424,2 13,2.22385763 13,2.5 C13,2.77614237 12.7761424,3 12.5,3 Z M14.5,3 C14.2238576,3 14,2.77614237 14,2.5 C14,2.22385763 14.2238576,2 14.5,2 C14.7761424,2 15,2.22385763 15,2.5 C15,2.77614237 14.7761424,3 14.5,3 Z M20.5,3 C20.2238576,3 20,2.77614237 20,2.5 C20,2.22385763 20.2238576,2 20.5,2 C20.7761424,2 21,2.22385763 21,2.5 C21,2.77614237 20.7761424,3 20.5,3 Z M18.5,3 C18.2238576,3 18,2.77614237 18,2.5 C18,2.22385763 18.2238576,2 18.5,2 C18.7761424,2 19,2.22385763 19,2.5 C19,2.77614237 18.7761424,3 18.5,3 Z M16.5,3 C16.2238576,3 16,2.77614237 16,2.5 C16,2.22385763 16.2238576,2 16.5,2 C16.7761424,2 17,2.22385763 17,2.5 C17,2.77614237 16.7761424,3 16.5,3 Z M2.5,15 C2.22385763,15 2,14.7761424 2,14.5 C2,14.2238576 2.22385763,14 2.5,14 C2.77614237,14 3,14.2238576 3,14.5 C3,14.7761424 2.77614237,15 2.5,15 Z M4.5,15 C4.22385763,15 4,14.7761424 4,14.5 C4,14.2238576 4.22385763,14 4.5,14 C4.77614237,14 5,14.2238576 5,14.5 C5,14.7761424 4.77614237,15 4.5,15 Z M6.5,15 C6.22385763,15 6,14.7761424 6,14.5 C6,14.2238576 6.22385763,14 6.5,14 C6.77614237,14 7,14.2238576 7,14.5 C7,14.7761424 6.77614237,15 6.5,15 Z M8.5,15 C8.22385763,15 8,14.7761424 8,14.5 C8,14.2238576 8.22385763,14 8.5,14 C8.77614237,14 9,14.2238576 9,14.5 C9,14.7761424 8.77614237,15 8.5,15 Z M10.5,15 C10.2238576,15 10,14.7761424 10,14.5 C10,14.2238576 10.2238576,14 10.5,14 C10.7761424,14 11,14.2238576 11,14.5 C11,14.7761424 10.7761424,15 10.5,15 Z M12.5,15 C12.2238576,15 12,14.7761424 12,14.5 C12,14.2238576 12.2238576,14 12.5,14 C12.7761424,14 13,14.2238576 13,14.5 C13,14.7761424 12.7761424,15 12.5,15 Z M14.5,15 C14.2238576,15 14,14.7761424 14,14.5 C14,14.2238576 14.2238576,14 14.5,14 C14.7761424,14 15,14.2238576 15,14.5 C15,14.7761424 14.7761424,15 14.5,15 Z M20.5,15 C20.2238576,15 20,14.7761424 20,14.5 C20,14.2238576 20.2238576,14 20.5,14 C20.7761424,14 21,14.2238576 21,14.5 C21,14.7761424 20.7761424,15 20.5,15 Z M18.5,15 C18.2238576,15 18,14.7761424 18,14.5 C18,14.2238576 18.2238576,14 18.5,14 C18.7761424,14 19,14.2238576 19,14.5 C19,14.7761424 18.7761424,15 18.5,15 Z M16.5,15 C16.2238576,15 16,14.7761424 16,14.5 C16,14.2238576 16.2238576,14 16.5,14 C16.7761424,14 17,14.2238576 17,14.5 C17,14.7761424 16.7761424,15 16.5,15 Z M6.5,9 C6.22385763,9 6,8.77614237 6,8.5 C6,8.22385763 6.22385763,8 6.5,8 C6.77614237,8 7,8.22385763 7,8.5 C7,8.77614237 6.77614237,9 6.5,9 Z M6.5,11 C6.22385763,11 6,10.7761424 6,10.5 C6,10.2238576 6.22385763,10 6.5,10 C6.77614237,10 7,10.2238576 7,10.5 C7,10.7761424 6.77614237,11 6.5,11 Z M8.5,9 C8.22385763,9 8,8.77614237 8,8.5 C8,8.22385763 8.22385763,8 8.5,8 C8.77614237,8 9,8.22385763 9,8.5 C9,8.77614237 8.77614237,9 8.5,9 Z M8.5,11 C8.22385763,11 8,10.7761424 8,10.5 C8,10.2238576 8.22385763,10 8.5,10 C8.77614237,10 9,10.2238576 9,10.5 C9,10.7761424 8.77614237,11 8.5,11 Z M8.5,13 C8.22385763,13 8,12.7761424 8,12.5 C8,12.2238576 8.22385763,12 8.5,12 C8.77614237,12 9,12.2238576 9,12.5 C9,12.7761424 8.77614237,13 8.5,13 Z M10.5,11 C10.2238576,11 10,10.7761424 10,10.5 C10,10.2238576 10.2238576,10 10.5,10 C10.7761424,10 11,10.2238576 11,10.5 C11,10.7761424 10.7761424,11 10.5,11 Z M10.5,13 C10.2238576,13 10,12.7761424 10,12.5 C10,12.2238576 10.2238576,12 10.5,12 C10.7761424,12 11,12.2238576 11,12.5 C11,12.7761424 10.7761424,13 10.5,13 Z M12.5,9 C12.2238576,9 12,8.77614237 12,8.5 C12,8.22385763 12.2238576,8 12.5,8 C12.7761424,8 13,8.22385763 13,8.5 C13,8.77614237 12.7761424,9 12.5,9 Z M12.5,11 C12.2238576,11 12,10.7761424 12,10.5 C12,10.2238576 12.2238576,10 12.5,10 C12.7761424,10 13,10.2238576 13,10.5 C13,10.7761424 12.7761424,11 12.5,11 Z M14.5,7 C14.2238576,7 14,6.77614237 14,6.5 C14,6.22385763 14.2238576,6 14.5,6 C14.7761424,6 15,6.22385763 15,6.5 C15,6.77614237 14.7761424,7 14.5,7 Z M14.5,9 C14.2238576,9 14,8.77614237 14,8.5 C14,8.22385763 14.2238576,8 14.5,8 C14.7761424,8 15,8.22385763 15,8.5 C15,8.77614237 14.7761424,9 14.5,9 Z M16.5,5 C16.2238576,5 16,4.77614237 16,4.5 C16,4.22385763 16.2238576,4 16.5,4 C16.7761424,4 17,4.22385763 17,4.5 C17,4.77614237 16.7761424,5 16.5,5 Z M16.5,7 C16.2238576,7 16,6.77614237 16,6.5 C16,6.22385763 16.2238576,6 16.5,6 C16.7761424,6 17,6.22385763 17,6.5 C17,6.77614237 16.7761424,7 16.5,7 Z M18.5,5 C18.2238576,5 18,4.77614237 18,4.5 C18,4.22385763 18.2238576,4 18.5,4 C18.7761424,4 19,4.22385763 19,4.5 C19,4.77614237 18.7761424,5 18.5,5 Z" id="dots" fill-opacity="0.08" fill="#FFFFFF"></path>
                    <g id="state-completed">
                        <use fill="black" fill-opacity="1" filter="url(#filter-13)" xlink:href="#path-12"></use>
                        <use fill="#92FFFC" fill-rule="evenodd" xlink:href="#path-12"></use>
                    </g>
                </g>
            </g>
        </g>
    </g>
</svg>